0
SECTION
2
HEADER
9
$INSUNITS
70
4
9
$ACADVER
1
AC1014
9
$HANDSEED
5
FFFF
0
ENDSEC
0
SECTION
2
TABLES
0
TABLE
2
VPORT
5
8
100
AcDbSymbolTable
0
ENDTAB
0
TABLE
2
LTYPE
5
5
100
AcDbSymbolTable
0
LTYPE
5
14
100
AcDbSymbolTableRecord
100
AcDbLinetypeTableRecord
2
BYBLOCK
70
0
0
LTYPE
5
15
100
AcDbSymbolTableRecord
100
AcDbLinetypeTableRecord
2
BYLAYER
70
0
0
LTYPE
5
16
100
AcDbSymbolTableRecord
100
AcDbLinetypeTableRecord
2
DASHED
70
0
3
Dashed __ __ __ __ __ __ __ __ __ __ __ __ __ _
72
65
73
2
40
0.75
49
0.5
74
0
49
-0.25
74
0
0
ENDTAB
0
TABLE
2
LAYER
5
2
100
AcDbSymbolTable
70
2
0
LAYER
5
50
100
AcDbSymbolTableRecord
100
AcDbLayerTableRecord
2
0
70
0
62
7
6
CONTINUOUS
0
ENDTAB
0
TABLE
2
STYLE
5
3
100
AcDbSymbolTable
70
1
0
STYLE
5
11
100
AcDbSymbolTableRecord
100
AcDbTextStyleTableRecord
2
STANDARD
70
0
0
ENDTAB
0
TABLE
2
VIEW
5
6
100
AcDbSymbolTable
70
0
0
ENDTAB
0
TABLE
2
UCS
5
7
100
AcDbSymbolTable
70
0
0
ENDTAB
0
TABLE
2
APPID
5
9
100
AcDbSymbolTable
70
2
0
APPID
5
12
100
AcDbSymbolTableRecord
100
AcDbRegAppTableRecord
2
ACAD
70
0
0
ENDTAB
0
TABLE
2
DIMSTYLE
5
A
100
AcDbSymbolTable
70
1
0
ENDTAB
0
TABLE
2
BLOCK_RECORD
5
1
100
AcDbSymbolTable
70
1
0
BLOCK_RECORD
5
1F
100
AcDbSymbolTableRecord
100
AcDbBlockTableRecord
2
*MODEL_SPACE
0
BLOCK_RECORD
5
1B
100
AcDbSymbolTableRecord
100
AcDbBlockTableRecord
2
*PAPER_SPACE
0
ENDTAB
0
ENDSEC
0
SECTION
2
BLOCKS
0
BLOCK
5
20
100
AcDbEntity
100
AcDbBlockBegin
2
*MODEL_SPACE
0
ENDBLK
5
21
100
AcDbEntity
100
AcDbBlockEnd
0
BLOCK
5
1C
100
AcDbEntity
100
AcDbBlockBegin
2
*PAPER_SPACE
0
ENDBLK
5
1D
100
AcDbEntity
100
AcDbBlockEnd
0
ENDSEC
0
SECTION
2
ENTITIES
0
LWPOLYLINE
5
100
100
AcDbEntity
8
0
100
AcDbPolyline
90
15
70
1
43
0.0
10
-9.7149147562431359
20
0.285085392768476
10
-10.000000149011612
20
0
10
-9.7149147562431359
20
0
10
-9.7149147562431377
20
-4.940913912009103
42
-0.20170514490776531
10
-10.015443058488776
20
-5.6555742117604151
10
-12.016977325383515
20
-7.6145700763209181
42
-0.41421356237309503
10
-13.431109322889185
20
-7.5993814743239652
10
-16.514191500277988
20
-4.4493520447924482
42
-0.43352085417477321
10
-16.403171776407682
20
-1.8972215139543014
42
0.45959254084851414
10
-16.403171776407689
20
1.8972215139543038
42
-0.43352085417477559
10
-16.514191500277988
20
4.4493520447924446
10
-13.431109322889188
20
7.5993814743239652
42
-0.41421356237309503
10
-12.016977325383515
20
7.614570076320919
10
-10.015443058488781
20
5.6555742117604204
42
-0.20170514490776842
10
-9.7149147562431377
20
4.9409139120091092
0
ARC
5
101
100
AcDbEntity
8
0
100
AcDbCircle
10
-43.29596305139841
20
47.748169688387705
30
0
40
2.4999999999999627
210
0
220
0
230
1
100
AcDbArc
50
154.64123172206183
51
158.02403007215113
0
ARC
5
102
100
AcDbEntity
8
0
100
AcDbCircle
10
-61.625495729753794
20
26.820381471901488
30
0
40
23.754501616135222
210
0
220
-0
230
1
100
AcDbArc
50
51.726345625226571
51
55.087354394311014
0
ARC
5
103
100
AcDbEntity
8
0
100
AcDbCircle
10
-47.600910941880414
20
46.9146995987483
30
0
40
0.74999999999998068
210
0
220
0
230
1
100
AcDbArc
50
117.38016806168946
51
235.08735439431135
0
LINE
5
104
100
AcDbEntity
8
0
100
AcDbLine
10
-47.945830283397697
20
47.58068056532862
30
0
11
-45.555072384462562
21
48.818882077996726
31
0
0
LINE
5
105
100
AcDbEntity
8
0
100
AcDbLine
10
45.555072384462534
20
48.818882077996733
30
0
11
47.94583028339769
21
47.58068056532862
31
0
0
ARC
5
106
100
AcDbEntity
8
0
100
AcDbCircle
10
47.600910941880421
20
46.9146995987483
30
0
40
0.74999999999997602
210
-0
220
0
230
1
100
AcDbArc
50
-55.087354394311483
51
62.619831938311492
0
ARC
5
107
100
AcDbEntity
8
0
100
AcDbCircle
10
61.625495729753794
20
26.820381471901488
30
0
40
23.754501616135244
210
0
220
0
230
1
100
AcDbArc
50
124.91264560568899
51
128.27365437477343
0
ARC
5
108
100
AcDbEntity
8
0
100
AcDbCircle
10
43.295963051398367
20
47.748169688387691
30
0
40
2.4999999999999858
210
0
220
-0
230
1
100
AcDbArc
50
21.975969927848837
51
25.358768277938484
0
ARC
5
109
100
AcDbEntity
8
0
100
AcDbCircle
10
61.625495729753794
20
-26.820381471901488
30
0
40
23.754501616135222
210
0
220
0
230
1
100
AcDbArc
50
231.7263456252266
51
235.08735439431098
0
ARC
5
110
100
AcDbEntity
8
0
100
AcDbCircle
10
47.600910941880407
20
-46.9146995987483
30
0
40
0.74999999999998068
210
0
220
0
230
1
100
AcDbArc
50
-62.619831938310547
51
55.0873543943109
0
LINE
5
111
100
AcDbEntity
8
0
100
AcDbLine
10
47.94583028339769
20
-47.58068056532862
30
0
11
45.555072384462562
21
-48.818882077996726
31
0
0
ARC
5
112
100
AcDbEntity
8
0
100
AcDbCircle
10
43.295963051398445
20
-47.748169688387719
30
0
40
2.4999999999999227
210
-0
220
0
230
1
100
AcDbArc
50
334.64123172206172
51
338.0240300721519
0
CIRCLE
5
113
100
AcDbEntity
8
0
100
AcDbCircle
10
1.3877787807814457e-16
20
-18.031222920256962
30
0
40
1.0500000000000003
210
0
220
0
230
1
0
CIRCLE
5
114
100
AcDbEntity
8
0
100
AcDbCircle
10
-39
20
-42.999999999999986
30
0
40
2.2499999999999964
210
0
220
0
230
1
0
CIRCLE
5
115
100
AcDbEntity
8
0
100
AcDbCircle
10
39.224719276247512
20
38.50561447504969
30
0
40
1.0500000000000043
210
0
220
0
230
1
0
CIRCLE
5
116
100
AcDbEntity
8
0
100
AcDbCircle
10
34.505614475049683
20
42.775280723752488
30
0
40
1.0500000000000043
210
0
220
0
230
1
0
CIRCLE
5
117
100
AcDbEntity
8
0
100
AcDbCircle
10
-22.599999494850636
20
-7.8477196038364738
30
0
40
1.0499999999999998
210
0
220
0
230
1
0
CIRCLE
5
118
100
AcDbEntity
8
0
100
AcDbCircle
10
-43.494385524950296
20
43.224719276247505
30
0
40
1.0500000000000043
210
0
220
0
230
1
0
CIRCLE
5
119
100
AcDbEntity
8
0
100
AcDbCircle
10
-22.599999494850636
20
7.852280396163529
30
0
40
1.0499999999999998
210
0
220
0
230
1
0
CIRCLE
5
120
100
AcDbEntity
8
0
100
AcDbCircle
10
-39.224719276247505
20
38.505614475049711
30
0
40
1.0500000000000043
210
0
220
0
230
1
0
CIRCLE
5
121
100
AcDbEntity
8
0
100
AcDbCircle
10
39
20
-42.999999999999986
30
0
40
2.2500000000000009
210
0
220
0
230
1
0
LWPOLYLINE
5
122
100
AcDbEntity
8
0
100
AcDbPolyline
90
16
70
1
43
0.0
10
8.0000001341104543
20
-5.0000000745058051
42
0.41421356237309392
10
9.0000001341104507
20
-4.0000000745058051
10
9.0000001341104507
20
4.0000000745058006
42
0.41421356237309459
10
8.0000001341104543
20
5.000000074505806
10
5.9319805898452715
20
5.0000000745058051
42
-0.19891236737965926
10
4.3409903321755383
20
5.6590098168360736
10
1.060660171779821
20
8.9393399772317945
42
0.41421356237309453
10
-1.0606601717798192
20
8.9393399772317927
10
-5.9142136592306427
20
4.0857864897809701
42
0.19891236737965823
10
-6.5000000968575478
20
2.671572927407873
10
-6.5000000968575478
20
-2.6715729274078721
42
0.19891236737965773
10
-5.9142136592306471
20
-4.0857864897809693
10
-1.0606601717798194
20
-8.9393399772317927
42
0.41421356237309476
10
1.0606601717798236
20
-8.9393399772317892
10
4.3409903321755392
20
-5.6590098168360745
42
-0.1989123673796595
10
5.9319805898452715
20
-5.000000074505806
0
CIRCLE
5
123
100
AcDbEntity
8
0
100
AcDbCircle
10
18.031222920256962
20
0
30
0
40
1.0499999999999998
210
0
220
0
230
1
0
LWPOLYLINE
5
124
100
AcDbEntity
8
0
100
AcDbPolyline
90
8
70
1
43
0.0
10
33.5000004991889
20
6.0798672227421058
42
0.39006647752549184
10
32.583045979042645
20
7.076412980986988
10
27.919690853614281
20
7.4650259081060195
42
0.20198192422726519
10
27.181737369575671
20
7.2241887617312095
10
22.028119465024186
20
2.7579890080335892
42
0.69428923339386051
10
22.683027469209062
20
1.0022803961635152
10
32.5000004991889
20
1.0022803961635169
42
0.41421356237309104
10
33.5000004991889
20
2.0022803961635116
0
CIRCLE
5
125
100
AcDbEntity
8
0
100
AcDbCircle
10
-43.494385524950296
20
-43.224719276247505
30
0
40
1.0500000000000043
210
0
220
0
230
1
0
CIRCLE
5
126
100
AcDbEntity
8
0
100
AcDbCircle
10
43.494385524950296
20
43.224719276247505
30
0
40
1.0500000000000043
210
0
220
0
230
1
0
CIRCLE
5
127
100
AcDbEntity
8
0
100
AcDbCircle
10
-34.505614475049683
20
-42.775280723752481
30
0
40
1.0500000000000043
210
0
220
0
230
1
0
CIRCLE
5
128
100
AcDbEntity
8
0
100
AcDbCircle
10
-18.031222920256962
20
1.3877787807814457e-16
30
0
40
1.05
210
0
220
0
230
1
0
CIRCLE
5
129
100
AcDbEntity
8
0
100
AcDbCircle
10
38.775280723752473
20
-47.494385524950289
30
0
40
1.0500000000000043
210
0
220
0
230
1
0
LWPOLYLINE
5
130
100
AcDbEntity
8
0
100
AcDbPolyline
90
6
70
1
43
0.0
10
-14.764353383554734
20
-11.818168489961852
42
0.51228787921556629
10
-21.172581916865969
20
-12.861932656265825
10
-30.961307266570294
20
-32.496840541346074
42
0.75130300938701433
10
-29.524690195893687
20
-33.772029280897456
10
-10.364693279205522
20
-21.344933898522527
42
0.47715081195834685
10
-9.8758527963603893
20
-16.706669077156203
0
LWPOLYLINE
5
131
100
AcDbEntity
8
0
100
AcDbPolyline
90
6
70
1
43
0.0
10
14.76435338355474
20
11.818168489961852
42
0.5122878792155654
10
21.172581916865969
20
12.861932656265825
10
30.961307266570298
20
32.496840541346081
42
0.75130300938701033
10
29.52469019589369
20
33.772029280897478
10
10.364693279205515
20
21.344933898522527
42
0.47715081195834563
10
9.8758527963603857
20
16.706669077156199
0
CIRCLE
5
132
100
AcDbEntity
8
0
100
AcDbCircle
10
39.224719276247512
20
-38.50561447504969
30
0
40
1.0500000000000087
210
0
220
0
230
1
0
CIRCLE
5
133
100
AcDbEntity
8
0
100
AcDbCircle
10
38.999999999999993
20
42.999999999999986
30
0
40
2.2499999999999964
210
0
220
0
230
1
0
LWPOLYLINE
5
134
100
AcDbEntity
8
0
100
AcDbPolyline
90
8
70
1
43
0.0
10
16.281222920256962
20
4.2794433760074382
42
0.19612257144508921
10
15.995883220008274
20
4.9789150737617991
10
13.242344408326367
20
7.792245304064461
42
0.67206944149855374
10
11.956349183512877
20
7.2676415307486941
10
11.956349183512875
20
-7.2676415307486941
42
0.67206944149855163
10
13.242344408326367
20
-7.7922453040644646
10
15.995883220008276
20
-4.9789150737617991
42
0.19612257144508952
10
16.281222920256965
20
-4.27944337600744
0
CIRCLE
5
135
100
AcDbEntity
8
0
100
AcDbCircle
10
38.775280723752473
20
47.494385524950289
30
0
40
1.0500000000000043
210
0
220
0
230
1
0
CIRCLE
5
136
100
AcDbEntity
8
0
100
AcDbCircle
10
-38.775280723752473
20
47.494385524950289
30
0
40
1.0500000000000043
210
0
220
0
230
1
0
CIRCLE
5
137
100
AcDbEntity
8
0
100
AcDbCircle
10
2.4980018054066022e-15
20
18.031222920256965
30
0
40
1.0500000000000003
210
0
220
0
230
1
0
CIRCLE
5
138
100
AcDbEntity
8
0
100
AcDbCircle
10
-39.224719276247505
20
-38.505614475049711
30
0
40
1.0500000000000043
210
0
220
0
230
1
0
CIRCLE
5
139
100
AcDbEntity
8
0
100
AcDbCircle
10
43.494385524950303
20
-43.224719276247505
30
0
40
1.0500000000000043
210
0
220
0
230
1
0
LWPOLYLINE
5
140
100
AcDbEntity
8
0
100
AcDbPolyline
90
8
70
1
43
0.0
10
22.683027469209065
20
-0.9977196038364835
42
0.69428923339386028
10
22.02811946502419
20
-2.7534282157065504
10
27.181737369575686
20
-7.2196279694041356
42
0.20198192422725733
10
27.919690853614298
20
-7.4604651157789483
10
32.583045979042666
20
-7.0718521886599124
42
0.39006647752548873
10
33.500000499188914
20
-6.0753064304150328
10
33.500000499188893
20
-1.997719603836448
42
0.41421356237309398
10
32.5000004991889
20
-0.99771960383645109
0
CIRCLE
5
141
100
AcDbEntity
8
0
100
AcDbCircle
10
-38.999999999999993
20
42.999999999999986
30
0
40
2.2499999999999964
210
0
220
0
230
1
0
CIRCLE
5
142
100
AcDbEntity
8
0
100
AcDbCircle
10
22.599999494850636
20
7.852280396163529
30
0
40
1.0499999999999998
210
0
220
0
230
1
0
LWPOLYLINE
5
143
100
AcDbEntity
8
0
100
AcDbPolyline
90
6
70
1
43
0.0
10
-9.8758527963603804
20
16.706669077156207
10
-14.764353383554738
20
11.818168489961851
42
-0.51228787921556551
10
-21.172581916865969
20
12.86193265626582
10
-30.961307266570302
20
32.496840541346074
42
-0.75130300938700878
10
-29.524690195893687
20
33.77202928089747
10
-10.364693279205516
20
21.344933898522527
42
-0.47715081195834708
0
CIRCLE
5
144
100
AcDbEntity
8
0
100
AcDbCircle
10
22.599999494850636
20
-7.8477196038364738
30
0
40
1.0499999999999998
210
0
220
0
230
1
0
LWPOLYLINE
5
145
100
AcDbEntity
8
0
100
AcDbPolyline
90
6
70
1
43
0.0
10
21.172581916865969
20
-12.861932656265825
42
0.5122878792155664
10
14.764353383554742
20
-11.818168489961852
10
9.875852796360391
20
-16.706669077156203
42
0.47715081195834563
10
10.364693279205524
20
-21.34493389852253
10
29.52469019589369
20
-33.77202928089747
42
0.751303009387008
10
30.961307266570302
20
-32.496840541346074
0
CIRCLE
5
146
100
AcDbEntity
8
0
100
AcDbCircle
10
-34.505614475049683
20
42.775280723752488
30
0
40
1.0500000000000043
210
0
220
0
230
1
0
CIRCLE
5
147
100
AcDbEntity
8
0
100
AcDbCircle
10
34.50561447504969
20
-42.775280723752488
30
0
40
1.0500000000000043
210
0
220
0
230
1
0
CIRCLE
5
148
100
AcDbEntity
8
0
100
AcDbCircle
10
-38.775280723752473
20
-47.494385524950289
30
0
40
1.0500000000000043
210
0
220
0
230
1
0
ARC
5
149
100
AcDbEntity
8
0
100
AcDbCircle
10
-43.295963051398388
20
-47.748169688387662
30
0
40
2.5000000000000204
210
0
220
0
230
1
100
AcDbArc
50
201.97596992784912
51
205.35876827793791
0
LINE
5
150
100
AcDbEntity
8
0
100
AcDbLine
10
-45.555072384462598
20
-48.818882077996697
30
0
11
-47.945830283397711
21
-47.58068056532862
31
0
0
ARC
5
151
100
AcDbEntity
8
0
100
AcDbCircle
10
-47.600910941880407
20
-46.914699598748292
30
0
40
0.74999999999998623
210
0
220
0
230
1
100
AcDbArc
50
124.91264560568941
51
242.61983193830935
0
ARC
5
152
100
AcDbEntity
8
0
100
AcDbCircle
10
-61.625495729753794
20
-26.820381471901484
30
0
40
23.754501616135236
210
-0
220
0
230
1
100
AcDbArc
50
304.91264560568897
51
308.27365437477334
0
LWPOLYLINE
5
153
100
AcDbEntity
8
0
100
AcDbPolyline
90
78
70
1
43
0.0
10
-32.670218677604218
20
45.476653096162003
42
0.094825027045124438
10
-36.100630804080552
20
49.851097190600868
42
0.30784599406374469
10
-45.351932651655332
20
50.961024728648752
10
-51.763881605133946
20
47.640201278945149
42
0.60826596801911459
10
-51.763831389059249
20
45.864226029038463
42
-0.089623570541225508
10
-45.722700541217222
20
41.208624737720285
10
-42.627230334415039
20
37.787315561781639
42
-0.020891277191520129
10
-41.650528244946301
20
36.612707888447794
42
0.10823086718367229
10
-38.925666628902064
20
34.302235978233661
42
0.0063878444054515562
10
-38.568351797439114
20
34.055272455098169
42
-0.12962070974535955
10
-34.192394291493386
20
29.075982597886167
10
-25.876267009650668
20
12.4247671243496
42
-0.11141081585024137
10
-25.682508936882979
20
11.565994686326908
10
-25.682508936882975
20
7.9933896573362873
42
0.17004394970791259
10
-25.136256467761669
20
6.4336234615282706
10
-23.486651950661901
20
4.3673453482624272
42
-0.35021432737124114
10
-23.486651950661894
20
-4.3673453482624218
10
-25.136256467761669
20
-6.433623461528275
42
0.17004394970791525
10
-25.682508936882979
20
-7.9933896573362855
10
-25.682508936882975
20
-11.565994686326913
42
-0.11141081585025059
10
-25.876267009650661
20
-12.4247671243496
10
-34.192394291493059
20
-29.075982597885535
42
-0.12962070974535314
10
-38.56835179743851
20
-34.055272455097345
42
0.0063878444055026186
10
-38.925666628904118
20
-34.302235978234741
42
0.10823086718360256
10
-41.650528244946642
20
-36.612707888447581
42
-0.020891277191518797
10
-42.627230334415302
20
-37.78731556178132
10
-45.722700541217222
20
-41.208624737720278
42
-0.089623570541225286
10
-51.763831389059227
20
-45.864226029038441
42
0.60826596801911181
10
-51.763881605133975
20
-47.640201278945142
10
-45.351932651655353
20
-50.961024728648745
42
0.3078459940637453
10
-36.100630804080566
20
-49.851097190600875
42
0.094825027045990801
10
-32.670218677580955
20
-45.476653096116877
42
-0.021149293932312022
10
-31.675417707977264
20
-43.73206770222037
42
0.00099772965571602763
10
-31.639463460313241
20
-43.674532403482161
42
-0.11030634738437368
10
-23.087874553695812
20
-34.965238094817693
10
-9.2424818791493895
20
-25.996527033935259
42
-0.29558892731904063
10
9.2424818791519208
20
-25.99652703393939
10
23.087874553695514
20
-34.96523809482877
42
-0.11030634738391935
10
31.639463460282357
20
-43.67453240345413
42
0.00099772965655754763
10
31.675417707977466
20
-43.732067702241686
42
-0.021149293932651903
10
32.67021867760419
20
-45.476653096161968
42
0.094825027045125285
10
36.100630804080559
20
-49.851097190600854
42
0.30784599406374458
10
45.351932651655346
20
-50.961024728648745
10
51.76388160513396
20
-47.640201278945149
42
0.60826596801911603
10
51.76383138905922
20
-45.864226029038441
42
-0.089623570541224828
10
45.722700541217243
20
-41.208624737720299
10
42.627230334415039
20
-37.787315561781639
42
-0.020891277191520129
10
41.650528244946301
20
-36.612707888447794
42
0.10823086718367478
10
38.925666628901993
20
-34.302235978233625
42
0.0063878444054493834
10
38.568351797439163
20
-34.055272455098212
42
-0.12962070974536069
10
34.192394291493393
20
-29.075982597886195
10
26.883085581857703
20
-14.440699832015284
42
-0.53045249798286176
10
29.723634353708292
20
-9.3889684717943496
10
34.032962097132391
20
-9.0298578265089944
10
35.631769257380427
20
-7.1565748666652951
10
35.631769257380427
20
7.1565748666652951
10
34.032962097132398
20
9.029857826508989
10
29.723634353708292
20
9.3889684717943478
42
-0.53045249798285976
10
26.883085581857699
20
14.440699832015291
10
34.192394291493081
20
29.075982597885556
42
-0.12962070974535211
10
38.568351797438538
20
34.055272455097366
42
0.0063878444054993599
10
38.925666628904139
20
34.302235978234762
42
0.10823086718360156
10
41.650528244946621
20
36.612707888447552
42
-0.02089127719151913
10
42.627230334415287
20
37.787315561781313
10
45.722700541217243
20
41.208624737720278
42
-0.089623570541225508
10
51.763831389059256
20
45.864226029038448
42
0.60826596801911592
10
51.763881605133975
20
47.640201278945156
10
45.351932651655346
20
50.961024728648766
42
0.3078459940637438
10
36.100630804080552
20
49.851097190600854
42
0.094825027045991106
10
32.670218677580955
20
45.476653096116891
42
-0.021149293932299581
10
31.675417707977278
20
43.732067702220398
42
0.00099772965571602763
10
31.639463460313245
20
43.674532403482154
42
-0.11030634738437492
10
23.087874553695809
20
34.965238094817686
10
9.2424818791493788
20
25.996527033935266
42
-0.29558892731904102
10
-9.2424818791519119
20
25.99652703393939
10
-23.087874553695489
20
34.96523809482877
42
-0.11030634738391869
10
-31.639463460282329
20
43.674532403454108
42
0.0009977296565784118
10
-31.675417707977388
20
43.732067702241594
42
-0.021149293932650234
0
LWPOLYLINE
5
154
100
AcDbEntity
8
0
100
AcDbPolyline
90
16
70
1
43
0.0
10
-4.6316102636663281
20
-10.277073061660991
10
-1.3989433955087207
20
-13.441036392674782
42
0.4079360196627918
10
1.3989433955087194
20
-13.441036392674782
10
4.6316102636663263
20
-10.277073061660989
42
-0.41107132660964057
10
5.6865441228720126
20
-10.282738200584562
10
7.7484847196723949
20
-12.344678797384949
42
-0.41107132660963969
10
7.7541498585959676
20
-13.399612656590627
10
3.5570776056302029
20
-17.687821777863448
42
-0.41736279540550769
10
2.4907522949268119
20
-17.693548090437584
10
1.4142135623731011
20
-16.61700935788387
42
0.41421356237309592
10
-1.4142135623730967
20
-16.617009357883866
10
-2.4907522949268119
20
-17.693548090437584
42
-0.41736279540550841
10
-3.5570776056302016
20
-17.687821777863448
10
-7.7541498585959694
20
-13.399612656590632
42
-0.41107132660963691
10
-7.7484847196723976
20
-12.344678797384951
10
-5.6865441228720082
20
-10.282738200584564
42
-0.41107132660963996
0
ARC
5
155
100
AcDbEntity
8
0
100
AcDbCircle
10
-4.8572257327350599e-16
20
-13.410981990480144
30
0
40
0.99999999999999889
210
0
220
0
230
1
100
AcDbArc
50
225.61536640936518
51
314.38463359063479
0
LWPOLYLINE
5
156
100
AcDbEntity
8
0
100
AcDbPolyline
90
16
70
1
43
0.0
10
4.631610263666329
20
10.277073061660991
10
1.3989433955087214
20
13.441036392674782
42
0.40793601966279208
10
-1.3989433955087169
20
13.441036392674782
10
-4.6316102636663263
20
10.277073061660991
42
-0.41107132660963663
10
-5.6865441228720091
20
10.282738200584564
10
-7.7484847196723825
20
12.344678797384951
42
-0.41107132660964418
10
-7.7541498585959623
20
13.399612656590623
10
-3.5570776056302016
20
17.687821777863448
42
-0.41736279540550747
10
-2.4907522949268128
20
17.693548090437588
10
-1.4142135623730923
20
16.61700935788387
42
0.4142135623730942
10
1.4142135623730949
20
16.617009357883866
10
2.4907522949268159
20
17.693548090437588
42
-0.41736279540550852
10
3.5570776056302043
20
17.687821777863448
10
7.7541498585959703
20
13.399612656590625
42
-0.41107132660963813
10
7.7484847196723949
20
12.344678797384949
10
5.6865441228720108
20
10.282738200584564
42
-0.41107132660963797
0
ARC
5
157
100
AcDbEntity
8
0
100
AcDbCircle
10
2.0122792321330962e-15
20
13.410981990480149
30
0
40
0.99999999999999489
210
0
220
-0
230
1
100
AcDbArc
50
45.615366409365016
51
134.38463359063485
0
LINE
5
158
100
AcDbEntity
8
0
100
AcDbLine
10
-9.7149147562431359
20
0.285085392768476
30
0
11
-9.7149147562431359
21
0
31
0
0
LINE
5
159
100
AcDbEntity
8
0
100
AcDbLine
10
44.520104067689317
20
49.354904289180453
30
0
11
47.94583028339769
21
47.58068056532862
31
0
0
ARC
5
160
100
AcDbEntity
8
0
100
AcDbCircle
10
41.542225951077569
20
43.605124825565824
30
0
40
6.4751619252030865
210
0
220
-0
230
1
100
AcDbArc
50
62.619831938311435
51
86.763389031348538
0
ARC
5
161
100
AcDbEntity
8
0
100
AcDbCircle
10
41.865465611570642
20
49.321154495859652
30
0
40
0.75000000000000122
210
0
220
-0
230
1
100
AcDbArc
50
86.763389031348211
51
227.62981806120186
0
LINE
5
162
100
AcDbEntity
8
0
100
AcDbLine
10
45.410301977086519
20
45.072504250135154
30
0
11
41.360027121404087
21
48.767049873375626
31
0
0
ARC
5
163
100
AcDbEntity
8
0
100
AcDbCircle
10
45.915740467253066
20
45.626608872619144
30
0
40
0.74999999999998024
210
0
220
0
230
1
100
AcDbArc
50
227.62981806120041
51
309.87364677970038
0
ARC
5
164
100
AcDbEntity
8
0
100
AcDbCircle
10
61.625495729753794
20
26.820381471901488
30
0
40
23.754501616135244
210
0
220
0
230
1
100
AcDbArc
50
124.91264560568899
51
129.87364677970371
0
LINE
5
165
100
AcDbEntity
8
0
100
AcDbLine
10
-41.360027121404102
20
48.767049873375647
30
0
11
-45.41030197708654
21
45.07250425013514
31
0
0
ARC
5
166
100
AcDbEntity
8
0
100
AcDbCircle
10
-41.865465611570642
20
49.321154495859659
30
0
40
0.74999999999998734
210
-0
220
0
230
1
100
AcDbArc
50
-47.629818061201902
51
93.236610968650197
0
ARC
5
167
100
AcDbEntity
8
0
100
AcDbCircle
10
-41.542225951077569
20
43.605124825565873
30
0
40
6.4751619252030315
210
0
220
0
230
1
100
AcDbArc
50
93.23661096865132
51
117.38016806168878
0
LINE
5
168
100
AcDbEntity
8
0
100
AcDbLine
10
-47.945830283397711
20
47.58068056532862
30
0
11
-44.520104067689317
21
49.354904289180453
31
0
0
ARC
5
169
100
AcDbEntity
8
0
100
AcDbCircle
10
-45.915740467253073
20
45.626608872619165
30
0
40
0.74999999999998523
210
0
220
0
230
1
100
AcDbArc
50
230.12635322029629
51
312.37018193879692
0
ARC
5
170
100
AcDbEntity
8
0
100
AcDbCircle
10
-61.625495729753794
20
26.820381471901488
30
0
40
23.754501616135229
210
0
220
-0
230
1
100
AcDbArc
50
50.12635322029643
51
55.087354394311014
0
LINE
5
171
100
AcDbEntity
8
0
100
AcDbLine
10
-45.410301977086519
20
-45.072504250135154
30
0
11
-41.360027121404102
21
-48.76704987337564
31
0
0
ARC
5
172
100
AcDbEntity
8
0
100
AcDbCircle
10
-45.915740467253066
20
-45.626608872619144
30
0
40
0.74999999999998024
210
0
220
-0
230
1
100
AcDbArc
50
47.629818061200417
51
129.87364677970476
0
ARC
5
173
100
AcDbEntity
8
0
100
AcDbCircle
10
-61.625495729753794
20
-26.820381471901484
30
0
40
23.754501616135247
210
-0
220
0
230
1
100
AcDbArc
50
304.91264560568897
51
309.87364677970356
0
ARC
5
174
100
AcDbEntity
8
0
100
AcDbCircle
10
-41.865465611570642
20
-49.321154495859659
30
0
40
0.75000000000000022
210
0
220
0
230
1
100
AcDbArc
50
-93.236610968650126
51
47.629818061202279
0
ARC
5
175
100
AcDbEntity
8
0
100
AcDbCircle
10
-41.54222595107754
20
-43.605124825565788
30
0
40
6.4751619252031389
210
0
220
0
230
1
100
AcDbArc
50
242.61983193831139
51
266.76338903134848
0
LINE
5
176
100
AcDbEntity
8
0
100
AcDbLine
10
-44.520104067689317
20
-49.354904289180467
30
0
11
-47.945830283397711
21
-47.58068056532862
31
0
0
ARC
5
177
100
AcDbEntity
8
0
100
AcDbCircle
10
61.625495729753794
20
-26.820381471901488
30
0
40
23.754501616135229
210
0
220
0
230
1
100
AcDbArc
50
230.12635322029641
51
235.08735439431098
0
ARC
5
178
100
AcDbEntity
8
0
100
AcDbCircle
10
45.915740467253073
20
-45.626608872619158
30
0
40
0.74999999999997846
210
0
220
-0
230
1
100
AcDbArc
50
50.126353220295996
51
132.37018193879766
0
LINE
5
179
100
AcDbEntity
8
0
100
AcDbLine
10
41.360027121404102
20
-48.767049873375647
30
0
11
45.410301977086547
21
-45.072504250135154
31
0
0
ARC
5
180
100
AcDbEntity
8
0
100
AcDbCircle
10
41.865465611570627
20
-49.321154495859659
30
0
40
0.74999999999998135
210
0
220
0
230
1
100
AcDbArc
50
132.37018193879729
51
273.23661096865237
0
ARC
5
181
100
AcDbEntity
8
0
100
AcDbCircle
10
41.542225951077576
20
-43.605124825565881
30
0
40
6.4751619252030048
210
0
220
0
230
1
100
AcDbArc
50
273.23661096865141
51
297.38016806168883
0
LINE
5
182
100
AcDbEntity
8
0
100
AcDbLine
10
47.94583028339769
20
-47.58068056532862
30
0
11
44.520104067689331
21
-49.354904289180453
31
0
0
ENDSEC
0
SECTION
2
OBJECTS
0
DICTIONARY
5
C
100
AcDbDictionary
3
ACAD_GROUP
350
D
3
ACAD_MLINESTYLE
350
17
0
DICTIONARY
5
D
100
AcDbDictionary
0
DICTIONARY
5
1A
330
C
100
AcDbDictionary
0
DICTIONARY
5
17
100
AcDbDictionary
0
ENDSEC
0
EOF
