0
SECTION
2
HEADER
9
$INSUNITS
70
4
9
$ACADVER
1
AC1014
9
$HANDSEED
5
FFFF
0
ENDSEC
0
SECTION
2
TABLES
0
TABLE
2
VPORT
5
8
100
AcDbSymbolTable
0
ENDTAB
0
TABLE
2
LTYPE
5
5
100
AcDbSymbolTable
0
LTYPE
5
14
100
AcDbSymbolTableRecord
100
AcDbLinetypeTableRecord
2
BYBLOCK
70
0
0
LTYPE
5
15
100
AcDbSymbolTableRecord
100
AcDbLinetypeTableRecord
2
BYLAYER
70
0
0
LTYPE
5
16
100
AcDbSymbolTableRecord
100
AcDbLinetypeTableRecord
2
DASHED
70
0
3
Dashed __ __ __ __ __ __ __ __ __ __ __ __ __ _
72
65
73
2
40
0.75
49
0.5
74
0
49
-0.25
74
0
0
ENDTAB
0
TABLE
2
LAYER
5
2
100
AcDbSymbolTable
70
2
0
LAYER
5
50
100
AcDbSymbolTableRecord
100
AcDbLayerTableRecord
2
0
70
0
62
7
6
CONTINUOUS
0
ENDTAB
0
TABLE
2
STYLE
5
3
100
AcDbSymbolTable
70
1
0
STYLE
5
11
100
AcDbSymbolTableRecord
100
AcDbTextStyleTableRecord
2
STANDARD
70
0
0
ENDTAB
0
TABLE
2
VIEW
5
6
100
AcDbSymbolTable
70
0
0
ENDTAB
0
TABLE
2
UCS
5
7
100
AcDbSymbolTable
70
0
0
ENDTAB
0
TABLE
2
APPID
5
9
100
AcDbSymbolTable
70
2
0
APPID
5
12
100
AcDbSymbolTableRecord
100
AcDbRegAppTableRecord
2
ACAD
70
0
0
ENDTAB
0
TABLE
2
DIMSTYLE
5
A
100
AcDbSymbolTable
70
1
0
ENDTAB
0
TABLE
2
BLOCK_RECORD
5
1
100
AcDbSymbolTable
70
1
0
BLOCK_RECORD
5
1F
100
AcDbSymbolTableRecord
100
AcDbBlockTableRecord
2
*MODEL_SPACE
0
BLOCK_RECORD
5
1B
100
AcDbSymbolTableRecord
100
AcDbBlockTableRecord
2
*PAPER_SPACE
0
ENDTAB
0
ENDSEC
0
SECTION
2
BLOCKS
0
BLOCK
5
20
100
AcDbEntity
100
AcDbBlockBegin
2
*MODEL_SPACE
0
ENDBLK
5
21
100
AcDbEntity
100
AcDbBlockEnd
0
BLOCK
5
1C
100
AcDbEntity
100
AcDbBlockBegin
2
*PAPER_SPACE
0
ENDBLK
5
1D
100
AcDbEntity
100
AcDbBlockEnd
0
ENDSEC
0
SECTION
2
ENTITIES
0
LWPOLYLINE
5
100
100
AcDbEntity
8
0
100
AcDbPolyline
90
14
70
1
43
0.0
10
-10.015443058488776
20
-5.655574211760416
10
-12.016977325383515
20
-7.614570076320919
42
-0.41421356237309709
10
-13.431109322889185
20
-7.599381474323966
10
-16.514191500277988
20
-4.4493520447924482
42
-0.43352085417477282
10
-16.403171776407682
20
-1.8972215139543009
42
0.4595925408485142
10
-16.403171776407689
20
1.8972215139543047
42
-0.43352085417477665
10
-16.514191500277988
20
4.4493520447924446
10
-13.431109322889188
20
7.5993814743239652
42
-0.41421356237309503
10
-12.016977325383515
20
7.614570076320919
10
-10.015443058488779
20
5.6555742117604204
42
-0.20170514490776786
10
-9.7149147562431342
20
4.9409139120091092
10
-9.7149147562431377
20
0.285085392768476
10
-9.7149147562431377
20
0
10
-9.7149147562431359
20
-4.940913912009103
42
-0.20170514490776453
0
ARC
5
101
100
AcDbEntity
8
0
100
AcDbCircle
10
-43.29596305139841
20
47.748169688387698
30
0
40
2.4999999999999627
210
0
220
0
230
1
100
AcDbArc
50
154.64123172206183
51
158.02403007215122
0
ARC
5
102
100
AcDbEntity
8
0
100
AcDbCircle
10
-61.625495729753794
20
26.820381471901488
30
0
40
23.754501616135229
210
0
220
-0
230
1
100
AcDbArc
50
51.726345625226578
51
55.087354394310999
0
LWPOLYLINE
5
103
100
AcDbEntity
8
0
100
AcDbPolyline
90
7
70
1
43
0.0
10
-47.945830283397719
20
47.580680565328606
42
0.56408738363294231
10
-48.030156096737109
20
46.299680414468646
42
-0.021649832755165844
10
-46.396562996576307
20
45.051013793335841
42
0.37509778878321554
10
-45.410301977086533
20
45.072504250135154
10
-41.360027121404094
20
48.767049873375647
42
0.70585657717215544
10
-41.907810220952342
20
50.069958164424584
42
0.10573758265348034
10
-44.520104067689317
20
49.354904289180432
0
LINE
5
104
100
AcDbEntity
8
0
100
AcDbLine
10
-47.945830283397719
20
47.580680565328606
30
0
11
-45.555072384462562
21
48.818882077996719
31
0
0
LINE
5
105
100
AcDbEntity
8
0
100
AcDbLine
10
45.555072384462527
20
48.818882077996733
30
0
11
47.945830283397683
21
47.580680565328628
31
0
0
LWPOLYLINE
5
106
100
AcDbEntity
8
0
100
AcDbPolyline
90
7
70
1
43
0.0
10
48.030156096737144
20
46.299680414468646
42
0.5640873836329543
10
47.945830283397683
20
47.580680565328628
10
44.520104067689331
20
49.354904289180453
42
0.10573758265347884
10
41.907810220952364
20
50.069958164424591
42
0.70585657717216965
10
41.360027121404094
20
48.767049873375626
10
45.410301977086533
20
45.072504250135154
42
0.37509778878320299
10
46.396562996576264
20
45.051013793335798
42
-0.021649832755166843
0
ARC
5
107
100
AcDbEntity
8
0
100
AcDbCircle
10
61.625495729753794
20
26.820381471901488
30
0
40
23.754501616135229
210
0
220
0
230
1
100
AcDbArc
50
124.91264560568898
51
128.27365437477346
0
ARC
5
108
100
AcDbEntity
8
0
100
AcDbCircle
10
43.295963051398367
20
47.748169688387698
30
0
40
2.4999999999999858
210
0
220
-0
230
1
100
AcDbArc
50
21.975969927848837
51
25.35876827793841
0
ARC
5
109
100
AcDbEntity
8
0
100
AcDbCircle
10
61.625495729753794
20
-26.820381471901488
30
0
40
23.754501616135229
210
0
220
0
230
1
100
AcDbArc
50
231.7263456252266
51
235.08735439431098
0
LWPOLYLINE
5
110
100
AcDbEntity
8
0
100
AcDbPolyline
90
7
70
1
43
0.0
10
47.94583028339769
20
-47.580680565328606
42
0.56408738363293587
10
48.030156096737173
20
-46.299680414468668
42
-0.021649832755166843
10
46.396562996576293
20
-45.051013793335819
42
0.37509778878320987
10
45.410301977086547
20
-45.072504250135154
10
41.360027121404094
20
-48.767049873375647
42
0.70585657717217654
10
41.907810220952371
20
-50.069958164424577
42
0.10573758265347952
10
44.520104067689317
20
-49.354904289180439
0
LINE
5
111
100
AcDbEntity
8
0
100
AcDbLine
10
47.94583028339769
20
-47.580680565328606
30
0
11
45.555072384462569
21
-48.818882077996733
31
0
0
ARC
5
112
100
AcDbEntity
8
0
100
AcDbCircle
10
43.295963051398452
20
-47.748169688387719
30
0
40
2.4999999999999263
210
0
220
0
230
1
100
AcDbArc
50
334.6412317220616
51
338.0240300721519
0
CIRCLE
5
113
100
AcDbEntity
8
0
100
AcDbCircle
10
1.3877787807814454e-16
20
-18.031222920256962
30
0
40
1.0500000000000005
210
0
220
0
230
1
0
CIRCLE
5
114
100
AcDbEntity
8
0
100
AcDbCircle
10
-39
20
-43
30
0
40
2.2499999999999964
210
0
220
0
230
1
0
CIRCLE
5
115
100
AcDbEntity
8
0
100
AcDbCircle
10
39.224719276247505
20
38.50561447504969
30
0
40
1.0500000000000045
210
0
220
0
230
1
0
CIRCLE
5
116
100
AcDbEntity
8
0
100
AcDbCircle
10
34.505614475049683
20
42.775280723752502
30
0
40
1.0500000000000045
210
0
220
0
230
1
0
CIRCLE
5
117
100
AcDbEntity
8
0
100
AcDbCircle
10
-22.599999494850639
20
-7.8477196038364738
30
0
40
1.0499999999999998
210
0
220
0
230
1
0
CIRCLE
5
118
100
AcDbEntity
8
0
100
AcDbCircle
10
-43.494385524950296
20
43.224719276247512
30
0
40
1.0500000000000045
210
0
220
0
230
1
0
CIRCLE
5
119
100
AcDbEntity
8
0
100
AcDbCircle
10
-22.599999494850639
20
7.852280396163529
30
0
40
1.0499999999999998
210
0
220
0
230
1
0
CIRCLE
5
120
100
AcDbEntity
8
0
100
AcDbCircle
10
-39.224719276247505
20
38.505614475049711
30
0
40
1.0500000000000045
210
0
220
0
230
1
0
CIRCLE
5
121
100
AcDbEntity
8
0
100
AcDbCircle
10
39
20
-43
30
0
40
2.2500000000000009
210
0
220
0
230
1
0
LWPOLYLINE
5
122
100
AcDbEntity
8
0
100
AcDbPolyline
90
16
70
1
43
0.0
10
9.000000134110449
20
-4.0000000745058051
10
9.000000134110449
20
4.0000000745058006
42
0.41421356237309426
10
8.0000001341104543
20
5.000000074505806
10
5.9319805898452724
20
5.0000000745058051
42
-0.19891236737965967
10
4.3409903321755374
20
5.6590098168360736
10
1.0606601717798212
20
8.9393399772317927
42
0.41421356237309465
10
-1.0606601717798192
20
8.9393399772317927
10
-5.9142136592306427
20
4.0857864897809693
42
0.19891236737965892
10
-6.5000000968575478
20
2.671572927407873
10
-6.5000000968575478
20
-2.6715729274078721
42
0.19891236737965753
10
-5.9142136592306471
20
-4.0857864897809684
10
-1.0606601717798194
20
-8.9393399772317927
42
0.41421356237309442
10
1.0606601717798234
20
-8.9393399772317892
10
4.3409903321755392
20
-5.6590098168360745
42
-0.19891236737965948
10
5.9319805898452724
20
-5.0000000745058069
10
8.0000001341104543
20
-5.0000000745058051
42
0.41421356237309492
0
CIRCLE
5
123
100
AcDbEntity
8
0
100
AcDbCircle
10
18.031222920256962
20
0
30
0
40
1.0499999999999998
210
0
220
0
230
1
0
LWPOLYLINE
5
124
100
AcDbEntity
8
0
100
AcDbPolyline
90
8
70
1
43
0.0
10
33.5000004991889
20
6.0798672227421058
42
0.39006647752548906
10
32.583045979042645
20
7.0764129809869871
10
27.919690853614284
20
7.4650259081060195
42
0.20198192422726996
10
27.181737369575671
20
7.2241887617312086
10
22.028119465024186
20
2.7579890080335892
42
0.69428923339385951
10
22.683027469209065
20
1.0022803961635152
10
32.5000004991889
20
1.0022803961635169
42
0.4142135623730947
10
33.5000004991889
20
2.0022803961635121
0
CIRCLE
5
125
100
AcDbEntity
8
0
100
AcDbCircle
10
-43.494385524950296
20
-43.224719276247512
30
0
40
1.0500000000000045
210
0
220
0
230
1
0
CIRCLE
5
126
100
AcDbEntity
8
0
100
AcDbCircle
10
43.494385524950296
20
43.224719276247512
30
0
40
1.0500000000000045
210
0
220
0
230
1
0
CIRCLE
5
127
100
AcDbEntity
8
0
100
AcDbCircle
10
-34.505614475049683
20
-42.775280723752473
30
0
40
1.0500000000000045
210
0
220
0
230
1
0
CIRCLE
5
128
100
AcDbEntity
8
0
100
AcDbCircle
10
-18.031222920256962
20
1.3877787807814454e-16
30
0
40
1.0000000000000009
210
0
220
0
230
1
0
CIRCLE
5
129
100
AcDbEntity
8
0
100
AcDbCircle
10
38.775280723752473
20
-47.494385524950282
30
0
40
1.0500000000000045
210
0
220
0
230
1
0
LWPOLYLINE
5
130
100
AcDbEntity
8
0
100
AcDbPolyline
90
6
70
1
43
0.0
10
-29.524690195893694
20
-33.772029280897456
10
-10.364693279205524
20
-21.344933898522527
42
0.47715081195834652
10
-9.8758527963603875
20
-16.706669077156207
10
-14.764353383554736
20
-11.818168489961851
42
0.51228787921556651
10
-21.172581916865969
20
-12.861932656265825
10
-30.961307266570287
20
-32.496840541346074
42
0.75130300938701566
0
LWPOLYLINE
5
131
100
AcDbEntity
8
0
100
AcDbPolyline
90
6
70
1
43
0.0
10
14.76435338355474
20
11.818168489961851
42
0.51228787921556496
10
21.172581916865969
20
12.861932656265825
10
30.961307266570302
20
32.496840541346081
42
0.75130300938701278
10
29.524690195893694
20
33.772029280897478
10
10.364693279205515
20
21.344933898522527
42
0.47715081195834608
10
9.8758527963603857
20
16.706669077156203
0
CIRCLE
5
132
100
AcDbEntity
8
0
100
AcDbCircle
10
39.224719276247505
20
-38.50561447504969
30
0
40
1.0500000000000087
210
0
220
0
230
1
0
CIRCLE
5
133
100
AcDbEntity
8
0
100
AcDbCircle
10
38.999999999999993
20
43
30
0
40
2.2499999999999964
210
0
220
0
230
1
0
LWPOLYLINE
5
134
100
AcDbEntity
8
0
100
AcDbPolyline
90
8
70
1
43
0.0
10
15.995883220008276
20
4.9789150737617991
10
13.242344408326367
20
7.792245304064461
42
0.67206944149855452
10
11.956349183512875
20
7.2676415307486941
10
11.956349183512875
20
-7.2676415307486941
42
0.67206944149855341
10
13.242344408326366
20
-7.7922453040644619
10
15.995883220008276
20
-4.9789150737617991
42
0.1961225714450853
10
16.281222920256965
20
-4.27944337600744
10
16.281222920256965
20
4.2794433760074382
42
0.19612257144508835
0
CIRCLE
5
135
100
AcDbEntity
8
0
100
AcDbCircle
10
38.775280723752473
20
47.494385524950282
30
0
40
1.0500000000000045
210
0
220
0
230
1
0
CIRCLE
5
136
100
AcDbEntity
8
0
100
AcDbCircle
10
-38.775280723752473
20
47.494385524950282
30
0
40
1.0500000000000045
210
0
220
0
230
1
0
CIRCLE
5
137
100
AcDbEntity
8
0
100
AcDbCircle
10
2.4980018054066022e-15
20
18.031222920256965
30
0
40
1.0500000000000005
210
0
220
0
230
1
0
CIRCLE
5
138
100
AcDbEntity
8
0
100
AcDbCircle
10
-39.224719276247505
20
-38.505614475049711
30
0
40
1.0500000000000045
210
0
220
0
230
1
0
CIRCLE
5
139
100
AcDbEntity
8
0
100
AcDbCircle
10
43.494385524950303
20
-43.224719276247512
30
0
40
1.0500000000000045
210
0
220
0
230
1
0
LWPOLYLINE
5
140
100
AcDbEntity
8
0
100
AcDbPolyline
90
8
70
1
43
0.0
10
32.5000004991889
20
-0.9977196038364512
10
22.683027469209065
20
-0.99771960383648373
42
0.69428923339386039
10
22.02811946502419
20
-2.7534282157065508
10
27.181737369575693
20
-7.2196279694041356
42
0.20198192422725292
10
27.919690853614298
20
-7.4604651157789483
10
32.583045979042666
20
-7.0718521886599124
42
0.39006647752549295
10
33.500000499188914
20
-6.0753064304150328
10
33.500000499188893
20
-1.9977196038364484
42
0.41421356237309342
0
CIRCLE
5
141
100
AcDbEntity
8
0
100
AcDbCircle
10
-38.999999999999993
20
43
30
0
40
2.2499999999999964
210
0
220
0
230
1
0
CIRCLE
5
142
100
AcDbEntity
8
0
100
AcDbCircle
10
22.599999494850639
20
7.852280396163529
30
0
40
1.0499999999999998
210
0
220
0
230
1
0
LWPOLYLINE
5
143
100
AcDbEntity
8
0
100
AcDbPolyline
90
6
70
1
43
0.0
10
-21.172581916865969
20
12.861932656265822
10
-30.961307266570305
20
32.496840541346074
42
-0.75130300938700889
10
-29.524690195893697
20
33.77202928089747
10
-10.364693279205515
20
21.344933898522527
42
-0.4771508119583468
10
-9.8758527963603804
20
16.706669077156207
10
-14.764353383554738
20
11.818168489961851
42
-0.51228787921556485
0
CIRCLE
5
144
100
AcDbEntity
8
0
100
AcDbCircle
10
22.599999494850639
20
-7.8477196038364738
30
0
40
1.0499999999999998
210
0
220
0
230
1
0
LWPOLYLINE
5
145
100
AcDbEntity
8
0
100
AcDbPolyline
90
6
70
1
43
0.0
10
29.524690195893694
20
-33.77202928089747
42
0.75130300938701011
10
30.961307266570309
20
-32.496840541346074
10
21.172581916865969
20
-12.861932656265825
42
0.51228787921556551
10
14.764353383554742
20
-11.818168489961849
10
9.8758527963603946
20
-16.706669077156207
42
0.4771508119583453
10
10.364693279205524
20
-21.34493389852253
0
CIRCLE
5
146
100
AcDbEntity
8
0
100
AcDbCircle
10
-34.505614475049683
20
42.775280723752502
30
0
40
1.0500000000000045
210
0
220
0
230
1
0
CIRCLE
5
147
100
AcDbEntity
8
0
100
AcDbCircle
10
34.50561447504969
20
-42.775280723752502
30
0
40
1.0500000000000045
210
0
220
0
230
1
0
CIRCLE
5
148
100
AcDbEntity
8
0
100
AcDbCircle
10
-38.775280723752473
20
-47.494385524950282
30
0
40
1.0500000000000045
210
0
220
0
230
1
0
ARC
5
149
100
AcDbEntity
8
0
100
AcDbCircle
10
-43.295963051398388
20
-47.748169688387662
30
0
40
2.5000000000000204
210
0
220
0
230
1
100
AcDbArc
50
201.97596992784912
51
205.35876827793768
0
LINE
5
150
100
AcDbEntity
8
0
100
AcDbLine
10
-45.555072384462605
20
-48.81888207799669
30
0
11
-47.945830283397719
21
-47.580680565328628
31
0
0
LWPOLYLINE
5
151
100
AcDbEntity
8
0
100
AcDbPolyline
90
7
70
1
43
0.0
10
-48.030156096737137
20
-46.299680414468646
42
0.56408738363292354
10
-47.945830283397719
20
-47.580680565328628
10
-44.520104067689317
20
-49.354904289180453
42
0.10573758265347841
10
-41.907810220952342
20
-50.069958164424591
42
0.70585657717215489
10
-41.360027121404094
20
-48.767049873375647
10
-45.410301977086533
20
-45.072504250135154
42
0.37509778878322458
10
-46.396562996576321
20
-45.051013793335855
42
-0.021649832755165844
0
ARC
5
152
100
AcDbEntity
8
0
100
AcDbCircle
10
-61.625495729753794
20
-26.820381471901484
30
0
40
23.754501616135236
210
0
220
0
230
1
100
AcDbArc
50
304.91264560568897
51
308.27365437477334
0
LWPOLYLINE
5
153
100
AcDbEntity
8
0
100
AcDbPolyline
90
78
70
1
43
0.0
10
-32.670218677580955
20
-45.476653096116884
42
-0.02114929393231043
10
-31.675417707977267
20
-43.732067702220363
42
0.00099772965567429929
10
-31.639463460313237
20
-43.674532403482161
42
-0.11030634738437313
10
-23.087874553695809
20
-34.965238094817693
10
-9.2424818791493912
20
-25.996527033935255
42
-0.29558892731904052
10
9.2424818791519208
20
-25.996527033939394
10
23.087874553695521
20
-34.96523809482877
42
-0.11030634738391877
10
31.639463460282364
20
-43.67453240345413
42
0.00099772965660623069
10
31.675417707977473
20
-43.732067702241686
42
-0.021149293932648638
10
32.670218677604197
20
-45.476653096161968
42
0.094825027045124757
10
36.100630804080559
20
-49.851097190600854
42
0.3078459940637448
10
45.351932651655353
20
-50.961024728648745
10
51.763881605133967
20
-47.640201278945142
42
0.60826596801911315
10
51.763831389059227
20
-45.864226029038448
42
-0.089623570541226882
10
45.722700541217243
20
-41.208624737720299
10
42.627230334415039
20
-37.787315561781639
42
-0.020891277191524484
10
41.650528244946301
20
-36.612707888447787
42
0.10823086718367309
10
38.925666628901993
20
-34.302235978233625
42
0.0063878444054406916
10
38.568351797439163
20
-34.055272455098219
42
-0.12962070974536119
10
34.1923942914934
20
-29.075982597886195
10
26.883085581857706
20
-14.440699832015287
42
-0.53045249798286254
10
29.723634353708292
20
-9.3889684717943496
10
34.032962097132391
20
-9.0298578265089944
10
35.631769257380427
20
-7.1565748666652951
10
35.631769257380427
20
7.1565748666652951
10
34.032962097132398
20
9.0298578265089873
10
29.723634353708292
20
9.3889684717943496
42
-0.5304524979828581
10
26.883085581857699
20
14.440699832015294
10
34.192394291493081
20
29.075982597885556
42
-0.12962070974535181
10
38.568351797438538
20
34.055272455097374
42
0.0063878444055015327
10
38.925666628904139
20
34.302235978234762
42
0.1082308671836031
10
41.650528244946621
20
36.612707888447545
42
-0.020891277191522489
10
42.627230334415287
20
37.78731556178132
10
45.722700541217243
20
41.208624737720278
42
-0.089623570541225939
10
51.763831389059263
20
45.864226029038456
42
0.60826596801912403
10
51.763881605133975
20
47.64020127894517
10
45.351932651655346
20
50.961024728648781
42
0.30784599406374497
10
36.100630804080545
20
49.851097190600854
42
0.094825027045991703
10
32.670218677580962
20
45.476653096116884
42
-0.02114929393230024
10
31.675417707977282
20
43.732067702220405
42
0.00099772965568820874
10
31.639463460313245
20
43.674532403482154
42
-0.11030634738437459
10
23.087874553695809
20
34.965238094817693
10
9.242481879149377
20
25.996527033935266
42
-0.29558892731904096
10
-9.2424818791519137
20
25.996527033939394
10
-23.087874553695489
20
34.96523809482877
42
-0.11030634738391837
10
-31.639463460282329
20
43.674532403454108
42
0.00099772965657145708
10
-31.675417707977388
20
43.732067702241608
42
-0.021149293932647983
10
-32.670218677604211
20
45.476653096162003
42
0.09482502704512627
10
-36.100630804080545
20
49.851097190600868
42
0.30784599406374613
10
-45.351932651655332
20
50.961024728648745
10
-51.763881605133939
20
47.640201278945142
42
0.60826596801912403
10
-51.763831389059256
20
45.864226029038448
42
-0.089623570541225051
10
-45.722700541217229
20
41.208624737720285
10
-42.627230334415039
20
37.787315561781639
42
-0.020891277191515168
10
-41.650528244946301
20
36.612707888447787
42
0.10823086718367377
10
-38.925666628902064
20
34.302235978233661
42
0.0063878444054721985
10
-38.568351797439121
20
34.055272455098169
42
-0.12962070974535972
10
-34.192394291493386
20
29.075982597886174
10
-25.876267009650675
20
12.424767124349598
42
-0.11141081585024289
10
-25.682508936882979
20
11.56599468632691
10
-25.682508936882972
20
7.9933896573362873
42
0.17004394970791209
10
-25.136256467761676
20
6.4336234615282715
10
-23.486651950661898
20
4.3673453482624272
42
-0.35021432737124064
10
-23.486651950661894
20
-4.3673453482624218
10
-25.136256467761676
20
-6.433623461528275
42
0.17004394970791251
10
-25.682508936882979
20
-7.9933896573362855
10
-25.682508936882972
20
-11.565994686326913
42
-0.11141081585024813
10
-25.876267009650661
20
-12.424767124349598
10
-34.192394291493059
20
-29.075982597885535
42
-0.12962070974535347
10
-38.56835179743851
20
-34.055272455097345
42
0.0063878444054993599
10
-38.925666628904118
20
-34.302235978234741
42
0.10823086718360371
10
-41.650528244946649
20
-36.612707888447588
42
-0.020891277191517166
10
-42.627230334415302
20
-37.78731556178132
10
-45.722700541217229
20
-41.208624737720278
42
-0.08962357054122673
10
-51.763831389059227
20
-45.864226029038441
42
0.60826596801911181
10
-51.763881605133975
20
-47.640201278945142
10
-45.351932651655346
20
-50.961024728648745
42
0.30784599406374474
10
-36.100630804080573
20
-49.851097190600882
42
0.094825027045990662
0
LWPOLYLINE
5
154
100
AcDbEntity
8
0
100
AcDbPolyline
90
16
70
1
43
0.0
10
5.6865441228720126
20
-10.282738200584562
10
7.7484847196723949
20
-12.344678797384947
42
-0.41107132660963874
10
7.7541498585959667
20
-13.399612656590627
10
3.5570776056302034
20
-17.687821777863451
42
-0.41736279540550586
10
2.4907522949268119
20
-17.693548090437588
10
1.4142135623731011
20
-16.61700935788387
42
0.41421356237309626
10
-1.4142135623730969
20
-16.617009357883866
10
-2.4907522949268119
20
-17.693548090437588
42
-0.41736279540551036
10
-3.5570776056302016
20
-17.687821777863451
10
-7.7541498585959703
20
-13.399612656590634
42
-0.41107132660963841
10
-7.7484847196723976
20
-12.344678797384955
10
-5.6865441228720082
20
-10.282738200584564
42
-0.41107132660964057
10
-4.6316102636663281
20
-10.277073061660992
10
-1.3989433955087207
20
-13.441036392674784
42
0.40793601966279236
10
1.3989433955087196
20
-13.441036392674784
10
4.6316102636663263
20
-10.277073061660989
42
-0.41107132660964046
0
LWPOLYLINE
5
155
100
AcDbEntity
8
0
100
AcDbPolyline
90
16
70
1
43
0.0
10
-4.6316102636663263
20
10.277073061660992
42
-0.41107132660963647
10
-5.6865441228720091
20
10.282738200584564
10
-7.7484847196723825
20
12.344678797384955
42
-0.41107132660964274
10
-7.7541498585959623
20
13.399612656590625
10
-3.5570776056302016
20
17.687821777863451
42
-0.41736279540550636
10
-2.4907522949268128
20
17.693548090437588
10
-1.4142135623730927
20
16.61700935788387
42
0.41421356237309465
10
1.4142135623730945
20
16.617009357883866
10
2.4907522949268159
20
17.693548090437588
42
-0.4173627954055063
10
3.5570776056302043
20
17.687821777863451
10
7.7541498585959703
20
13.399612656590625
42
-0.41107132660963602
10
7.7484847196723949
20
12.344678797384947
10
5.6865441228720117
20
10.282738200584564
42
-0.4110713266096368
10
4.6316102636663299
20
10.277073061660996
10
1.3989433955087214
20
13.441036392674784
42
0.40793601966279253
10
-1.3989433955087169
20
13.441036392674784
0
ENDSEC
0
SECTION
2
OBJECTS
0
DICTIONARY
5
C
100
AcDbDictionary
3
ACAD_GROUP
350
D
3
ACAD_MLINESTYLE
350
17
0
DICTIONARY
5
D
100
AcDbDictionary
0
DICTIONARY
5
1A
330
C
100
AcDbDictionary
0
DICTIONARY
5
17
100
AcDbDictionary
0
ENDSEC
0
EOF
