0
SECTION
2
HEADER
9
$INSUNITS
70
4
9
$ACADVER
1
AC1014
9
$HANDSEED
5
FFFF
0
ENDSEC
0
SECTION
2
TABLES
0
TABLE
2
VPORT
5
8
100
AcDbSymbolTable
0
ENDTAB
0
TABLE
2
LTYPE
5
5
100
AcDbSymbolTable
0
LTYPE
5
14
100
AcDbSymbolTableRecord
100
AcDbLinetypeTableRecord
2
BYBLOCK
70
0
0
LTYPE
5
15
100
AcDbSymbolTableRecord
100
AcDbLinetypeTableRecord
2
BYLAYER
70
0
0
LTYPE
5
16
100
AcDbSymbolTableRecord
100
AcDbLinetypeTableRecord
2
DASHED
70
0
3
Dashed __ __ __ __ __ __ __ __ __ __ __ __ __ _
72
65
73
2
40
0.75
49
0.5
74
0
49
-0.25
74
0
0
ENDTAB
0
TABLE
2
LAYER
5
2
100
AcDbSymbolTable
70
2
0
LAYER
5
50
100
AcDbSymbolTableRecord
100
AcDbLayerTableRecord
2
0
70
0
62
7
6
CONTINUOUS
0
ENDTAB
0
TABLE
2
STYLE
5
3
100
AcDbSymbolTable
70
1
0
STYLE
5
11
100
AcDbSymbolTableRecord
100
AcDbTextStyleTableRecord
2
STANDARD
70
0
0
ENDTAB
0
TABLE
2
VIEW
5
6
100
AcDbSymbolTable
70
0
0
ENDTAB
0
TABLE
2
UCS
5
7
100
AcDbSymbolTable
70
0
0
ENDTAB
0
TABLE
2
APPID
5
9
100
AcDbSymbolTable
70
2
0
APPID
5
12
100
AcDbSymbolTableRecord
100
AcDbRegAppTableRecord
2
ACAD
70
0
0
ENDTAB
0
TABLE
2
DIMSTYLE
5
A
100
AcDbSymbolTable
70
1
0
ENDTAB
0
TABLE
2
BLOCK_RECORD
5
1
100
AcDbSymbolTable
70
1
0
BLOCK_RECORD
5
1F
100
AcDbSymbolTableRecord
100
AcDbBlockTableRecord
2
*MODEL_SPACE
0
BLOCK_RECORD
5
1B
100
AcDbSymbolTableRecord
100
AcDbBlockTableRecord
2
*PAPER_SPACE
0
ENDTAB
0
ENDSEC
0
SECTION
2
BLOCKS
0
BLOCK
5
20
100
AcDbEntity
100
AcDbBlockBegin
2
*MODEL_SPACE
0
ENDBLK
5
21
100
AcDbEntity
100
AcDbBlockEnd
0
BLOCK
5
1C
100
AcDbEntity
100
AcDbBlockBegin
2
*PAPER_SPACE
0
ENDBLK
5
1D
100
AcDbEntity
100
AcDbBlockEnd
0
ENDSEC
0
SECTION
2
ENTITIES
0
LWPOLYLINE
5
100
100
AcDbEntity
8
0
100
AcDbPolyline
90
70
70
1
43
0.0
10
34.192394291493066
20
-29.075982597885538
10
25.876267009650661
20
-12.424767124349604
42
-0.11141081585024137
10
25.682508936882972
20
-11.565994686326913
10
25.682508936882979
20
-7.9933896573362864
42
0.170043949707916
10
25.136256467761669
20
-6.433623461528275
10
23.486651950661898
20
-4.3673453482624272
42
-0.35021432737124158
10
23.486651950661901
20
4.3673453482624254
10
25.136256467761669
20
6.4336234615282697
42
0.17004394970791231
10
25.682508936882975
20
7.9933896573362873
10
25.682508936882979
20
11.565994686326908
42
-0.11141081585024991
10
25.876267009650672
20
12.424767124349598
10
34.192394291493386
20
29.075982597886167
42
-0.12962070974535969
10
38.568351797439114
20
34.055272455098162
42
0.060915240651575282
10
41.688141676783189
20
36.756827994008205
10
46.681337167087982
20
42.275623009608211
42
0.28728172455733242
10
47.145849930465417
20
44.888450559471096
10
45.61431526258523
20
48.683713928327748
42
0.22982456808631754
10
43.995584156856253
20
50.148280166844415
10
40.066478244414839
20
51.293596370659699
42
0.28728172455733025
10
37.513017691147532
20
50.570769202125767
10
33.46787321618838
20
46.099820045591983
42
0.044755429320429994
10
31.639463460282343
20
43.674532403454123
42
-0.11030634738391869
10
23.087874553695499
20
34.965238094828763
10
9.2424818791519208
20
25.99652703393939
42
-0.29558892731904096
10
-9.242481879149377
20
25.996527033935266
10
-23.087874553695809
20
34.965238094817693
42
-0.11030634738437525
10
-31.63946346031323
20
43.674532403482146
42
0.044755429320782893
10
-33.467873216231474
20
46.099820045639603
10
-37.513017691147539
20
50.570769202125774
42
0.28728172455733419
10
-40.066478244414839
20
51.293596370659706
10
-43.995584156856253
20
50.14828016684443
42
0.22982456808631507
10
-45.614315262585237
20
48.683713928327741
10
-47.145849930465403
20
44.88845055947111
42
0.28728172455732981
10
-46.681337167087989
20
42.275623009608225
10
-41.688141676782315
20
36.756827994007224
42
0.060915240651570772
10
-38.568351797438552
20
34.055272455097374
42
-0.12962070974535267
10
-34.192394291493081
20
29.075982597885552
10
-26.883085581857699
20
14.440699832015291
42
-0.53045249798285976
10
-29.723634353708292
20
9.3889684717943478
10
-34.032962097132398
20
9.029857826508989
10
-35.631769257380427
20
7.1565748666652951
10
-35.631769257380427
20
-7.1565748666652951
10
-34.032962097132391
20
-9.0298578265089944
10
-29.723634353708299
20
-9.3889684717943478
42
-0.53045249798286187
10
-26.883085581857699
20
-14.440699832015287
10
-34.192394291493386
20
-29.075982597886181
42
-0.12962070974535991
10
-38.568351797439163
20
-34.055272455098205
42
0.060915240651575053
10
-41.688141676783289
20
-36.756827994008304
10
-46.681337167088003
20
-42.275623009608253
42
0.28728172455732681
10
-47.145849930465403
20
-44.88845055947111
10
-45.614315262585244
20
-48.68371392832772
42
0.22982456808632246
10
-43.995584156856268
20
-50.148280166844415
10
-40.066478244414839
20
-51.293596370659699
42
0.28728172455733086
10
-37.513017691147539
20
-50.570769202125767
10
-33.467873216188437
20
-46.099820045592033
42
0.04475542932044406
10
-31.639463460282368
20
-43.674532403454151
42
-0.11030634738391992
10
-23.087874553695524
20
-34.965238094828777
10
-9.2424818791519208
20
-25.99652703393939
42
-0.29558892731904068
10
9.2424818791493824
20
-25.996527033935259
10
23.087874553695812
20
-34.965238094817693
42
-0.11030634738437424
10
31.639463460313241
20
-43.674532403482154
42
0.044755429320779146
10
33.467873216231453
20
-46.099820045639589
10
37.513017691147525
20
-50.570769202125774
42
0.28728172455732753
10
40.066478244414832
20
-51.293596370659699
10
43.995584156856282
20
-50.14828016684443
42
0.22982456808631424
10
45.614315262585244
20
-48.68371392832772
10
47.145849930465417
20
-44.88845055947111
42
0.28728172455732537
10
46.681337167087989
20
-42.275623009608225
10
41.688141676782223
20
-36.756827994007153
42
0.060915240651569384
10
38.568351797438524
20
-34.055272455097345
42
-0.12962070974535289
0
CIRCLE
5
101
100
AcDbEntity
8
0
100
AcDbCircle
10
-1.3877787807814457e-16
20
-18.031222920256962
30
0
40
1.0500000000000003
210
-0
220
0
230
1
0
CIRCLE
5
102
100
AcDbEntity
8
0
100
AcDbCircle
10
39
20
-42.999999999999986
30
0
40
2.2499999999999964
210
-0
220
0
230
1
0
CIRCLE
5
103
100
AcDbEntity
8
0
100
AcDbCircle
10
-39.224719276247512
20
38.50561447504969
30
0
40
1.0500000000000043
210
-0
220
0
230
1
0
CIRCLE
5
104
100
AcDbEntity
8
0
100
AcDbCircle
10
-34.505614475049683
20
42.775280723752488
30
0
40
1.0500000000000043
210
-0
220
0
230
1
0
CIRCLE
5
105
100
AcDbEntity
8
0
100
AcDbCircle
10
22.599999494850636
20
-7.8477196038364738
30
0
40
1.0499999999999998
210
-0
220
0
230
1
0
CIRCLE
5
106
100
AcDbEntity
8
0
100
AcDbCircle
10
43.494385524950296
20
43.224719276247505
30
0
40
1.0500000000000043
210
-0
220
0
230
1
0
CIRCLE
5
107
100
AcDbEntity
8
0
100
AcDbCircle
10
22.599999494850636
20
7.852280396163529
30
0
40
1.0499999999999998
210
-0
220
0
230
1
0
CIRCLE
5
108
100
AcDbEntity
8
0
100
AcDbCircle
10
39.224719276247505
20
38.505614475049711
30
0
40
1.0500000000000043
210
-0
220
0
230
1
0
CIRCLE
5
109
100
AcDbEntity
8
0
100
AcDbCircle
10
-39
20
-42.999999999999986
30
0
40
2.2500000000000009
210
-0
220
0
230
1
0
LWPOLYLINE
5
110
100
AcDbEntity
8
0
100
AcDbPolyline
90
16
70
1
43
0.0
10
-9.0000001341104507
20
-4.0000000745058051
42
0.41421356237309342
10
-8.0000001341104543
20
-5.0000000745058051
10
-5.9319805898452715
20
-5.0000000745058069
42
-0.19891236737965845
10
-4.3409903321755392
20
-5.6590098168360745
10
-1.0606601717798241
20
-8.9393399772317892
42
0.41421356237309509
10
1.0606601717798192
20
-8.9393399772317927
10
5.9142136592306453
20
-4.0857864897809666
42
0.19891236737965745
10
6.5000000968575478
20
-2.671572927407873
10
6.5000000968575478
20
2.6715729274078721
42
0.1989123673796582
10
5.9142136592306427
20
4.0857864897809693
10
1.0606601717798205
20
8.9393399772317945
42
0.41421356237309415
10
-1.0606601717798203
20
8.9393399772317945
10
-4.3409903321755374
20
5.6590098168360736
42
-0.1989123673796595
10
-5.9319805898452715
20
5.0000000745058051
10
-8.0000001341104543
20
5.0000000745058051
42
0.4142135623730947
10
-9.0000001341104507
20
4.0000000745058006
0
CIRCLE
5
111
100
AcDbEntity
8
0
100
AcDbCircle
10
-18.031222920256962
20
0
30
0
40
1.0499999999999998
210
-0
220
0
230
1
0
LWPOLYLINE
5
112
100
AcDbEntity
8
0
100
AcDbPolyline
90
8
70
1
43
0.0
10
-32.583045979042645
20
7.0764129809869845
42
0.39006647752549678
10
-33.5000004991889
20
6.0798672227421058
10
-33.5000004991889
20
2.0022803961635121
42
0.41421356237309076
10
-32.5000004991889
20
1.0022803961635169
10
-22.683027469209062
20
1.0022803961635198
42
0.69428923339386073
10
-22.028119465024186
20
2.7579890080335892
10
-27.181737369575671
20
7.2241887617312095
42
0.20198192422726496
10
-27.919690853614281
20
7.4650259081060195
0
CIRCLE
5
113
100
AcDbEntity
8
0
100
AcDbCircle
10
43.494385524950296
20
-43.224719276247505
30
0
40
1.0500000000000043
210
-0
220
0
230
1
0
CIRCLE
5
114
100
AcDbEntity
8
0
100
AcDbCircle
10
-43.494385524950296
20
43.224719276247505
30
0
40
1.0500000000000043
210
-0
220
0
230
1
0
CIRCLE
5
115
100
AcDbEntity
8
0
100
AcDbCircle
10
34.505614475049683
20
-42.775280723752481
30
0
40
1.0500000000000043
210
-0
220
0
230
1
0
LWPOLYLINE
5
116
100
AcDbEntity
8
0
100
AcDbPolyline
90
14
70
1
43
0.0
10
16.514191500277988
20
-4.4493520447924473
42
0.43352085417477426
10
16.403171776407682
20
-1.8972215139542996
42
-0.45959254084851425
10
16.403171776407689
20
1.8972215139543049
42
0.43352085417477415
10
16.514191500277992
20
4.4493520447924446
10
13.431109322889188
20
7.5993814743239652
42
0.41421356237309503
10
12.016977325383515
20
7.614570076320919
10
10.015443058488785
20
5.6555742117604204
42
0.20170514490776806
10
9.7149147562431377
20
4.9409139120091083
10
9.7149147562431359
20
0.285085392768476
10
9.7149147562431359
20
0
10
9.7149147562431377
20
-4.9409139120091048
42
0.20170514490776678
10
10.015443058488778
20
-5.6555742117604151
10
12.016977325383518
20
-7.614570076320919
42
0.41421356237309415
10
13.431109322889185
20
-7.5993814743239652
0
CIRCLE
5
117
100
AcDbEntity
8
0
100
AcDbCircle
10
18.031222920256962
20
5.5511151231257827e-16
30
0
40
1.05
210
-0
220
0
230
1
0
CIRCLE
5
118
100
AcDbEntity
8
0
100
AcDbCircle
10
-38.775280723752473
20
-47.494385524950289
30
0
40
1.0500000000000043
210
-0
220
0
230
1
0
LWPOLYLINE
5
119
100
AcDbEntity
8
0
100
AcDbPolyline
90
6
70
1
43
0.0
10
21.172581916865969
20
-12.861932656265825
10
30.961307266570294
20
-32.496840541346067
42
-0.75130300938701222
10
29.524690195893687
20
-33.772029280897456
10
10.364693279205522
20
-21.344933898522527
42
-0.47715081195834652
10
9.8758527963603893
20
-16.706669077156203
10
14.764353383554736
20
-11.818168489961856
42
-0.51228787921556651
0
LWPOLYLINE
5
120
100
AcDbEntity
8
0
100
AcDbPolyline
90
6
70
1
43
0.0
10
-21.172581916865969
20
12.861932656265825
10
-30.961307266570298
20
32.496840541346074
42
-0.75130300938701056
10
-29.524690195893687
20
33.77202928089747
10
-10.364693279205515
20
21.344933898522527
42
-0.47715081195834552
10
-9.8758527963603857
20
16.706669077156199
10
-14.764353383554738
20
11.818168489961856
42
-0.51228787921556551
0
CIRCLE
5
121
100
AcDbEntity
8
0
100
AcDbCircle
10
-39.224719276247512
20
-38.50561447504969
30
0
40
1.0500000000000087
210
-0
220
0
230
1
0
CIRCLE
5
122
100
AcDbEntity
8
0
100
AcDbCircle
10
-38.999999999999993
20
42.999999999999986
30
0
40
2.2499999999999964
210
-0
220
0
230
1
0
LWPOLYLINE
5
123
100
AcDbEntity
8
0
100
AcDbPolyline
90
8
70
1
43
0.0
10
-15.995883220008274
20
4.9789150737617991
42
0.19612257144508927
10
-16.281222920256962
20
4.2794433760074391
10
-16.281222920256965
20
-4.2794433760074391
42
0.19612257144508874
10
-15.995883220008276
20
-4.9789150737617991
10
-13.242344408326366
20
-7.7922453040644619
42
0.67206944149855163
10
-11.956349183512875
20
-7.2676415307486941
10
-11.956349183512877
20
7.2676415307486941
42
0.67206944149855197
10
-13.242344408326367
20
7.792245304064461
0
LWPOLYLINE
5
124
100
AcDbEntity
8
0
100
AcDbPolyline
90
16
70
1
43
0.0
10
3.5570776056302016
20
17.687821777863448
42
0.41736279540550886
10
2.4907522949268128
20
17.693548090437588
10
1.4142135623730934
20
16.61700935788387
42
-0.41421356237309515
10
-1.4142135623730949
20
16.617009357883866
10
-2.4907522949268146
20
17.693548090437588
42
0.41736279540550919
10
-3.5570776056302043
20
17.687821777863448
10
-7.7541498585959694
20
13.399612656590627
42
0.41107132660963819
10
-7.7484847196723949
20
12.344678797384949
10
-5.6865441228720108
20
10.282738200584564
42
0.41107132660964057
10
-4.6316102636663281
20
10.277073061660991
10
-1.3989433955087225
20
13.441036392674778
42
-0.40793601966279192
10
1.3989433955087183
20
13.441036392674778
10
4.6316102636663272
20
10.277073061660989
42
0.41107132660963874
10
5.6865441228720091
20
10.282738200584564
10
7.7484847196723834
20
12.344678797384951
42
0.41107132660964057
10
7.7541498585959623
20
13.399612656590625
0
CIRCLE
5
125
100
AcDbEntity
8
0
100
AcDbCircle
10
-38.775280723752473
20
47.494385524950289
30
0
40
1.0500000000000043
210
-0
220
0
230
1
0
CIRCLE
5
126
100
AcDbEntity
8
0
100
AcDbCircle
10
38.775280723752473
20
47.494385524950289
30
0
40
1.0500000000000043
210
-0
220
0
230
1
0
CIRCLE
5
127
100
AcDbEntity
8
0
100
AcDbCircle
10
-2.2204460492503131e-15
20
18.031222920256962
30
0
40
1.0500000000000003
210
-0
220
0
230
1
0
CIRCLE
5
128
100
AcDbEntity
8
0
100
AcDbCircle
10
39.224719276247505
20
-38.505614475049711
30
0
40
1.0500000000000043
210
-0
220
0
230
1
0
CIRCLE
5
129
100
AcDbEntity
8
0
100
AcDbCircle
10
-43.494385524950303
20
-43.224719276247505
30
0
40
1.0500000000000043
210
-0
220
0
230
1
0
LWPOLYLINE
5
130
100
AcDbEntity
8
0
100
AcDbPolyline
90
8
70
1
43
0.0
10
-22.02811946502419
20
-2.7534282157065499
42
0.69428923339386028
10
-22.683027469209065
20
-0.9977196038364835
10
-32.5000004991889
20
-0.99771960383644998
42
0.41421356237309404
10
-33.500000499188893
20
-1.9977196038364475
10
-33.500000499188914
20
-6.0753064304150328
42
0.39006647752548906
10
-32.583045979042666
20
-7.0718521886599124
10
-27.919690853614298
20
-7.4604651157789492
42
0.20198192422726072
10
-27.181737369575686
20
-7.2196279694041348
0
CIRCLE
5
131
100
AcDbEntity
8
0
100
AcDbCircle
10
38.999999999999993
20
42.999999999999986
30
0
40
2.2499999999999964
210
-0
220
0
230
1
0
CIRCLE
5
132
100
AcDbEntity
8
0
100
AcDbCircle
10
-22.599999494850636
20
7.852280396163529
30
0
40
1.0499999999999998
210
-0
220
0
230
1
0
LWPOLYLINE
5
133
100
AcDbEntity
8
0
100
AcDbPolyline
90
6
70
1
43
0.0
10
10.364693279205515
20
21.344933898522527
10
29.524690195893687
20
33.77202928089747
42
-0.75130300938701056
10
30.961307266570298
20
32.496840541346074
10
21.172581916865969
20
12.86193265626582
42
-0.51228787921556562
10
14.764353383554738
20
11.818168489961851
10
9.8758527963603804
20
16.706669077156203
42
-0.47715081195834691
0
CIRCLE
5
134
100
AcDbEntity
8
0
100
AcDbCircle
10
-22.599999494850636
20
-7.8477196038364738
30
0
40
1.0499999999999998
210
-0
220
0
230
1
0
LWPOLYLINE
5
135
100
AcDbEntity
8
0
100
AcDbPolyline
90
6
70
1
43
0.0
10
-14.764353383554742
20
-11.818168489961852
10
-9.875852796360391
20
-16.706669077156203
42
-0.47715081195834586
10
-10.364693279205524
20
-21.34493389852253
10
-29.52469019589369
20
-33.77202928089747
42
-0.75130300938701056
10
-30.961307266570302
20
-32.496840541346074
10
-21.172581916865969
20
-12.861932656265825
42
-0.51228787921556662
0
CIRCLE
5
136
100
AcDbEntity
8
0
100
AcDbCircle
10
34.505614475049683
20
42.775280723752488
30
0
40
1.0500000000000043
210
-0
220
0
230
1
0
LWPOLYLINE
5
137
100
AcDbEntity
8
0
100
AcDbPolyline
90
16
70
1
43
0.0
10
1.3989433955087216
20
-13.441036392674784
10
4.6316102636663272
20
-10.277073061660991
42
-0.41107132660963841
10
5.6865441228720073
20
-10.282738200584564
10
7.7484847196723976
20
-12.344678797384949
42
-0.41107132660963691
10
7.7541498585959694
20
-13.399612656590632
10
3.5570776056302016
20
-17.687821777863448
42
-0.41736279540550958
10
2.4907522949268128
20
-17.693548090437584
10
1.4142135623730967
20
-16.617009357883866
42
0.41421356237309592
10
-1.4142135623731014
20
-16.61700935788387
10
-2.4907522949268119
20
-17.693548090437584
42
-0.41736279540550997
10
-3.5570776056302029
20
-17.687821777863448
10
-7.7541498585959676
20
-13.399612656590627
42
-0.41107132660963841
10
-7.7484847196723949
20
-12.344678797384949
10
-5.6865441228720126
20
-10.282738200584562
42
-0.41107132660964046
10
-4.6316102636663263
20
-10.277073061660989
10
-1.3989433955087185
20
-13.441036392674784
42
0.4079360196627923
0
CIRCLE
5
138
100
AcDbEntity
8
0
100
AcDbCircle
10
-34.50561447504969
20
-42.775280723752488
30
0
40
1.0500000000000043
210
-0
220
0
230
1
0
CIRCLE
5
139
100
AcDbEntity
8
0
100
AcDbCircle
10
38.775280723752473
20
-47.494385524950289
30
0
40
1.0500000000000043
210
-0
220
0
230
1
0
LINE
5
140
100
AcDbEntity
8
0
100
AcDbLine
10
-38.775280723752473
20
-47.494385524950289
30
0
11
-43.494385524950303
21
-43.224719276247505
31
0
0
LINE
5
141
100
AcDbEntity
8
0
100
AcDbLine
10
-41.134833124351388
20
-45.359552400598901
30
0
11
-45.160313068166154
21
-49.808767075341514
31
0
0
LINE
5
142
100
AcDbEntity
8
0
100
AcDbLine
10
-38.775280723752473
20
-47.494385524950289
30
0
11
-34.50561447504969
21
-42.775280723752488
31
0
0
LINE
5
143
100
AcDbEntity
8
0
100
AcDbLine
10
-39.224719276247512
20
-38.50561447504969
30
0
11
-43.494385524950303
21
-43.224719276247505
31
0
0
LINE
5
144
100
AcDbEntity
8
0
100
AcDbLine
10
-39.224719276247512
20
38.50561447504969
30
0
11
-43.494385524950296
21
43.224719276247505
31
0
0
LINE
5
145
100
AcDbEntity
8
0
100
AcDbLine
10
-43.494385524950296
20
43.224719276247505
30
0
11
-38.775280723752473
21
47.494385524950289
31
0
0
LINE
5
146
100
AcDbEntity
8
0
100
AcDbLine
10
-38.775280723752473
20
47.494385524950289
30
0
11
-34.505614475049683
21
42.775280723752488
31
0
0
LINE
5
147
100
AcDbEntity
8
0
100
AcDbLine
10
-41.134833124351374
20
45.359552400598901
30
0
11
-45.160313068166133
21
49.808767075341521
31
0
0
LINE
5
148
100
AcDbEntity
8
0
100
AcDbLine
10
34.505614475049683
20
-42.775280723752481
30
0
11
38.775280723752473
21
-47.494385524950289
31
0
0
LINE
5
149
100
AcDbEntity
8
0
100
AcDbLine
10
38.775280723752473
20
-47.494385524950289
30
0
11
43.494385524950296
21
-43.224719276247505
31
0
0
LINE
5
150
100
AcDbEntity
8
0
100
AcDbLine
10
43.494385524950296
20
-43.224719276247505
30
0
11
39.224719276247505
21
-38.505614475049711
31
0
0
LINE
5
151
100
AcDbEntity
8
0
100
AcDbLine
10
39.224719276247505
20
38.505614475049711
30
0
11
43.494385524950296
21
43.224719276247505
31
0
0
LINE
5
152
100
AcDbEntity
8
0
100
AcDbLine
10
43.494385524950296
20
43.224719276247505
30
0
11
38.775280723752473
21
47.494385524950289
31
0
0
LINE
5
153
100
AcDbEntity
8
0
100
AcDbLine
10
38.775280723752473
20
47.494385524950289
30
0
11
34.505614475049683
21
42.775280723752488
31
0
0
LINE
5
154
100
AcDbEntity
8
0
100
AcDbLine
10
41.134833124351374
20
-45.359552400598901
30
0
11
45.160313068166133
21
-49.808767075341521
31
0
0
ENDSEC
0
SECTION
2
OBJECTS
0
DICTIONARY
5
C
100
AcDbDictionary
3
ACAD_GROUP
350
D
3
ACAD_MLINESTYLE
350
17
0
DICTIONARY
5
D
100
AcDbDictionary
0
DICTIONARY
5
1A
330
C
100
AcDbDictionary
0
DICTIONARY
5
17
100
AcDbDictionary
0
ENDSEC
0
EOF
