0
SECTION
2
HEADER
9
$INSUNITS
70
4
9
$ACADVER
1
AC1014
9
$HANDSEED
5
FFFF
0
ENDSEC
0
SECTION
2
TABLES
0
TABLE
2
VPORT
5
8
100
AcDbSymbolTable
0
ENDTAB
0
TABLE
2
LTYPE
5
5
100
AcDbSymbolTable
0
LTYPE
5
14
100
AcDbSymbolTableRecord
100
AcDbLinetypeTableRecord
2
BYBLOCK
70
0
0
LTYPE
5
15
100
AcDbSymbolTableRecord
100
AcDbLinetypeTableRecord
2
BYLAYER
70
0
0
LTYPE
5
16
100
AcDbSymbolTableRecord
100
AcDbLinetypeTableRecord
2
DASHED
70
0
3
Dashed __ __ __ __ __ __ __ __ __ __ __ __ __ _
72
65
73
2
40
0.75
49
0.5
74
0
49
-0.25
74
0
0
ENDTAB
0
TABLE
2
LAYER
5
2
100
AcDbSymbolTable
70
2
0
LAYER
5
50
100
AcDbSymbolTableRecord
100
AcDbLayerTableRecord
2
0
70
0
62
7
6
CONTINUOUS
0
ENDTAB
0
TABLE
2
STYLE
5
3
100
AcDbSymbolTable
70
1
0
STYLE
5
11
100
AcDbSymbolTableRecord
100
AcDbTextStyleTableRecord
2
STANDARD
70
0
0
ENDTAB
0
TABLE
2
VIEW
5
6
100
AcDbSymbolTable
70
0
0
ENDTAB
0
TABLE
2
UCS
5
7
100
AcDbSymbolTable
70
0
0
ENDTAB
0
TABLE
2
APPID
5
9
100
AcDbSymbolTable
70
2
0
APPID
5
12
100
AcDbSymbolTableRecord
100
AcDbRegAppTableRecord
2
ACAD
70
0
0
ENDTAB
0
TABLE
2
DIMSTYLE
5
A
100
AcDbSymbolTable
70
1
0
ENDTAB
0
TABLE
2
BLOCK_RECORD
5
1
100
AcDbSymbolTable
70
1
0
BLOCK_RECORD
5
1F
100
AcDbSymbolTableRecord
100
AcDbBlockTableRecord
2
*MODEL_SPACE
0
BLOCK_RECORD
5
1B
100
AcDbSymbolTableRecord
100
AcDbBlockTableRecord
2
*PAPER_SPACE
0
ENDTAB
0
ENDSEC
0
SECTION
2
BLOCKS
0
BLOCK
5
20
100
AcDbEntity
100
AcDbBlockBegin
2
*MODEL_SPACE
0
ENDBLK
5
21
100
AcDbEntity
100
AcDbBlockEnd
0
BLOCK
5
1C
100
AcDbEntity
100
AcDbBlockBegin
2
*PAPER_SPACE
0
ENDBLK
5
1D
100
AcDbEntity
100
AcDbBlockEnd
0
ENDSEC
0
SECTION
2
ENTITIES
0
POINT
5
100
100
AcDbEntity
8
0
100
AcDbPoint
10
3.0000001192092896
20
-10.000000149011614
30
0
0
POINT
5
101
100
AcDbEntity
8
0
100
AcDbPoint
10
-11.99999988079071
20
-10.000000149011614
30
0
0
POINT
5
102
100
AcDbEntity
8
0
100
AcDbPoint
10
-11.99999988079071
20
-8.0000001192092896
30
0
0
LWPOLYLINE
5
103
100
AcDbEntity
8
0
100
AcDbPolyline
90
29
70
1
43
0.0
10
-35.87920671141724
20
-7.5807735692845579
10
-35.087853850356851
20
-8.5200656041681064
42
0.21245938298211914
10
-33.990630832134308
20
-9.0527666219172929
42
-0.086978351082121916
10
-21.29470668977735
20
-11.716453958431735
42
0.095369285445655094
10
-19.809810707683056
20
-12.002280574977455
10
-18.421030573659813
20
-12.00228057497746
10
16.987076122955479
20
-12.002280574977453
10
18.687965687875867
20
-12.00228057497746
42
0.088310270534873461
10
20.068297181424587
20
-11.756569451438297
10
23.035248620161546
20
-10.66571665734563
42
0.59482985561785096
10
23.798385497202773
20
-5.4487899709832153
10
20.449495435199729
20
-2.9406398106664389
42
-0.23624548937195097
10
20
20
-2.0424041914339242
10
20
20
0
10
19.999999999999996
20
2.0424041914339246
42
-0.2362454893719492
10
20.449495435199722
20
2.9406398106664384
10
23.798385497202762
20
5.4487899709832188
42
0.59520429141828313
10
23.032133453252911
20
10.666860048826749
10
20.066425750680615
20
11.753533181086073
42
0.088031589530496182
10
18.690247813010078
20
11.997719782650409
10
17.221031583958538
20
11.997719782650409
10
-18.421030573659827
20
11.997719782650409
10
-19.809810707683067
20
11.99771978265041
42
0.095369285445658786
10
-21.294706689777357
20
11.71189316610465
42
-0.086978351082122901
10
-33.990630832134329
20
9.0482058295902377
42
0.21245938298211728
10
-35.087853850356865
20
8.5155048118410406
10
-35.879206711417275
20
7.5762127769574796
42
0.17684042105855799
10
-36.2320626439801
20
6.6097447285752731
10
-36.232062643980072
20
-6.6143055209023549
42
0.17684042105856218
0
ARC
5
104
100
AcDbEntity
8
0
100
AcDbCircle
10
22.000000000000021
20
-7.8500000000000068
30
0
40
2.9999999999999929
210
-0
220
0
230
1
100
AcDbArc
50
-69.813145252943343
51
0
0
ARC
5
105
100
AcDbEntity
8
0
100
AcDbCircle
10
21.999999999999993
20
7.8500000000000103
30
0
40
2.9999999999999938
210
-0
220
0
230
1
100
AcDbArc
50
0
51
69.876521539660644
0
LWPOLYLINE
5
106
100
AcDbEntity
8
0
100
AcDbPolyline
90
8
70
1
43
0.0
10
-34.099999994039543
20
1.9954392076729186
42
0.41421356237309265
10
-33.09999999403955
20
0.99543920767292593
10
-26.634086579782537
20
0.99543920767293681
42
0.69428923339385828
10
-25.160543570366588
20
4.9457835843805871
10
-27.17703708803441
20
6.6933060081883591
42
0.20198192422726252
10
-29.3171021917464
20
7.391733732675303
10
-33.183045473893301
20
7.0695717924963883
42
0.39006647752549883
10
-34.09999999403955
20
6.0730260342515052
0
CIRCLE
5
107
100
AcDbEntity
8
0
100
AcDbCircle
10
-23.199998989701282
20
7.8500000000000068
30
0
40
1.0499999999999998
210
0
220
0
230
1
0
LWPOLYLINE
5
108
100
AcDbEntity
8
0
100
AcDbPolyline
90
8
70
1
43
0.0
10
-33.183045473893301
20
-7.0741325848234338
10
-29.3171021917464
20
-7.3962945250023555
42
0.20198192422726324
10
-27.17703708803441
20
-6.6978668005154054
10
-25.160543570366588
20
-4.9503443767076414
42
0.69428923339385806
10
-26.634086579782537
20
-0.99999999999999256
10
-33.09999999403955
20
-0.99999999999996847
42
0.41421356237309132
10
-34.099999994039536
20
-1.9999999999999711
10
-34.099999994039564
20
-6.0775868265785524
42
0.39006647752549406
0
CIRCLE
5
109
100
AcDbEntity
8
0
100
AcDbCircle
10
21.999999999999996
20
7.8500000000000014
30
0
40
1.0499999999999998
210
0
220
0
230
1
0
CIRCLE
5
110
100
AcDbEntity
8
0
100
AcDbCircle
10
22.000000000000025
20
-7.849999999999997
30
0
40
1.0499999999999998
210
0
220
0
230
1
0
CIRCLE
5
111
100
AcDbEntity
8
0
100
AcDbCircle
10
-23.199998989701282
20
-7.8499999999999979
30
0
40
1.0499999999999998
210
0
220
0
230
1
0
LWPOLYLINE
5
112
100
AcDbEntity
8
0
100
AcDbPolyline
90
8
70
1
43
0.0
10
-11.249999880790709
20
-8.0000001192092913
10
2.2500001192092878
20
-8.0000001192092896
42
-0.41421356237309503
10
3.0000001192092896
20
-8.750000119209286
10
3.0000001192092891
20
-9.2500001490116155
42
-0.41421356237309592
10
2.2500001192092896
20
-10.000000149011614
10
-11.249999880790709
20
-10.000000149011614
42
-0.41421356237309243
10
-11.999999880790712
20
-9.2500001490116119
10
-11.99999988079071
20
-8.7500001192092896
42
-0.41421356237309764
0
LWPOLYLINE
5
113
100
AcDbEntity
8
0
100
AcDbPolyline
90
8
70
1
43
0.0
10
-11.24999988079071
20
10.000000149011614
42
0.41421356237309503
10
-11.999999880790712
20
9.2500001490116119
10
-11.99999988079071
20
8.7500001192092896
42
0.41421356237309764
10
-11.249999880790709
20
8.0000001192092913
10
2.2500001192092878
20
8.0000001192092896
42
0.41421356237309498
10
3.0000001192092896
20
8.750000119209286
10
3.0000001192092896
20
9.2500001490116155
42
0.41421356237309365
10
2.2500001192092882
20
10.000000149011614
0
LWPOLYLINE
5
114
100
AcDbEntity
8
0
100
AcDbPolyline
90
8
70
1
43
0.0
10
-15.000000193715097
20
-2.0000000149011554
10
-15.000000193715097
20
-4.8069996026158277
42
-0.31263342052723031
10
-15.6488767521267
20
-5.743328780184866
10
-18.32443856232787
20
-6.7466644590103053
42
-0.52365463862460315
10
-19.000000283122066
20
-6.2784998702257822
10
-19.000000283122066
20
-1.5000000149011605
42
-0.41421356237309048
10
-18.50000028312207
20
-1.0000000149011612
10
-16.000000193715088
20
-1.0000000149011619
42
-0.41421356237309792
0
LWPOLYLINE
5
115
100
AcDbEntity
8
0
100
AcDbPolyline
90
10
70
1
43
0.0
10
7.6048515890243458
20
-4.8042573217562463
10
7.604851589024344
20
-2.0000000149011568
42
-0.41421356237309531
10
8.6048515890243369
20
-1.0000000149011625
10
15.000000238418581
20
-1.0000000149011623
42
-0.41421356237309775
10
16.000000238418579
20
-2.0000000149011612
10
16.000000238418579
20
-7.0743954393855013
42
-0.41421356237309148
10
15.000000238418583
20
-8.0743954393855031
10
13.145127824282852
20
-8.0743954393854995
42
-0.11643382146585139
10
12.697914228782901
20
-7.9688226303854197
10
8.1576379935243875
20
-5.6986845127561629
42
-0.28407904384041571
0
LWPOLYLINE
5
116
100
AcDbEntity
8
0
100
AcDbPolyline
90
8
70
1
43
0.0
10
3.8548515890243489
20
-1.0000000149011621
10
-1.7500000298023215
20
-1.0000000149011616
42
0.41421356237309581
10
-2.7500000298023215
20
-2.0000000149011616
10
-2.7500000298023224
20
-4.0000000745058077
42
0.41421356237309492
10
-1.7500000298023222
20
-5.0000000745058069
10
3.8548515890243489
20
-5.0000000745058069
42
0.4142135623730952
10
4.8548515890243422
20
-4.000000074505814
10
4.8548515890243431
20
-2.0000000149011568
42
0.4142135623730972
0
LWPOLYLINE
5
117
100
AcDbEntity
8
0
100
AcDbPolyline
90
8
70
1
43
0.0
10
-12.250000193715096
20
-2.0000000149011559
42
-0.41421356237309404
10
-11.250000193715106
20
-1.0000000149011607
10
-6.2500000894069672
20
-1.0000000149011612
42
-0.41421356237309492
10
-5.2500000894069672
20
-2.0000000149011612
10
-5.2500000894069672
20
-4.000000074505806
42
-0.41421356237309537
10
-6.2500000894069672
20
-5.0000000745058069
10
-11.250000193715104
20
-5.0000000745058069
42
-0.41421356237309437
10
-12.250000193715096
20
-4.0000000745058113
0
LWPOLYLINE
5
118
100
AcDbEntity
8
0
100
AcDbPolyline
90
8
70
1
43
0.0
10
-2.7500000298023219
20
2.0000000149011599
42
0.41421356237309531
10
-1.7500000298023228
20
1.0000000149011612
10
3.8548515890243489
20
1.000000014901161
42
0.41421356237309453
10
4.8548515890243431
20
2.0000000149011554
10
4.8548515890243431
20
4.0000000745058122
42
0.41421356237309426
10
3.8548515890243511
20
5.0000000745058069
10
-1.7500000298023215
20
5.0000000745058069
42
0.41421356237309503
10
-2.7500000298023224
20
4.000000074505806
0
LWPOLYLINE
5
119
100
AcDbEntity
8
0
100
AcDbPolyline
90
10
70
1
43
0.0
10
8.1576379935243821
20
5.6986845127561603
42
0.28407904384041149
10
7.604851589024344
20
4.8042573217562499
10
7.604851589024344
20
2.0000000149011559
42
0.4142135623730957
10
8.6048515890243369
20
1.0000000149011621
10
15.000000238418586
20
1.0000000149011625
42
0.41421356237309293
10
16.000000238418579
20
2.0000000149011612
10
16.000000238418579
20
7.0743954393855013
42
0.41421356237309209
10
15.000000238418581
20
8.0743954393855013
10
13.145127824282856
20
8.0743954393854995
42
0.11643382146585145
10
12.697914228782901
20
7.9688226303854197
0
LWPOLYLINE
5
120
100
AcDbEntity
8
0
100
AcDbPolyline
90
8
70
1
43
0.0
10
-12.250000193715096
20
4.0000000745058086
10
-12.250000193715096
20
2.000000014901155
42
0.41421356237309431
10
-11.250000193715104
20
1.0000000149011603
10
-6.2500000894069672
20
1.0000000149011607
42
0.41421356237309492
10
-5.2500000894069663
20
2.0000000149011612
10
-5.2500000894069672
20
4.000000074505806
42
0.41421356237309537
10
-6.2500000894069672
20
5.0000000745058069
10
-11.250000193715104
20
5.0000000745058051
42
0.41421356237309459
0
LWPOLYLINE
5
121
100
AcDbEntity
8
0
100
AcDbPolyline
90
8
70
1
43
0.0
10
-16.000000193715088
20
1.000000014901161
42
0.4142135623730947
10
-15.000000193715097
20
2.0000000149011554
10
-15.000000193715097
20
4.8069996026158277
42
0.31263342052723214
10
-15.6488767521267
20
5.743328780184866
10
-18.32443856232787
20
6.7466644590103053
42
0.52365463862460315
10
-19.000000283122066
20
6.2784998702257822
10
-19.000000283122066
20
1.5000000149011605
42
0.41421356237309165
10
-18.500000283122066
20
1.0000000149011614
0
LINE
5
122
100
AcDbEntity
8
0
100
AcDbLine
10
2.2463369753141134
20
1.0000000149011612
30
0
11
3.8548515890243489
21
1.000000014901161
31
0
0
LINE
5
123
100
AcDbEntity
8
0
100
AcDbLine
10
2.2463369753141134
20
-1.0000000149011616
30
0
11
3.8548515890243489
21
-1.0000000149011621
31
0
0
LINE
5
124
100
AcDbEntity
8
0
100
AcDbLine
10
-11.250000193715106
20
-1.0000000149011607
30
0
11
-7.5000001043081284
21
-1.0000000149011612
31
0
0
LINE
5
125
100
AcDbEntity
8
0
100
AcDbLine
10
-11.250000193715104
20
1.0000000149011603
30
0
11
-7.5000001043081284
21
1.0000000149011612
31
0
0
ENDSEC
0
SECTION
2
OBJECTS
0
DICTIONARY
5
C
100
AcDbDictionary
3
ACAD_GROUP
350
D
3
ACAD_MLINESTYLE
350
17
0
DICTIONARY
5
D
100
AcDbDictionary
0
DICTIONARY
5
1A
330
C
100
AcDbDictionary
0
DICTIONARY
5
17
100
AcDbDictionary
0
ENDSEC
0
EOF
